<?xml version="1.0" standalone="no"?>
<!DOCTYPE svg PUBLIC "-//W3C//DTD SVG 20010904//EN"
 "http://www.w3.org/TR/2001/REC-SVG-20010904/DTD/svg10.dtd">
<svg version="1.0" xmlns="http://www.w3.org/2000/svg"
 width="1656.000000pt" height="1585.000000pt" viewBox="0 0 1656.000000 1585.000000"
 preserveAspectRatio="xMidYMid meet">

<g transform="translate(0.000000,1585.000000) scale(0.100000,-0.100000)"
fill="#000000" stroke="none">
<path d="M5603 13899 c-114 -23 -333 -205 -581 -483 -249 -278 -482 -592 -482
-649 0 -15 11 -10 58 26 183 141 524 308 762 374 93 26 101 27 465 31 612 6
968 -27 1155 -109 30 -13 40 -15 30 -5 -57 55 -670 549 -730 589 -217 142
-548 253 -677 226z"/>
<path d="M6105 12929 c-236 -24 -427 -72 -686 -173 -490 -190 -638 -292 -824
-571 -117 -175 -160 -264 -194 -400 -217 -869 -156 -1690 173 -2339 70 -138
227 -386 332 -526 83 -110 189 -233 358 -416 154 -166 197 -225 262 -359 l53
-109 -57 -21 c-129 -47 -295 -181 -378 -306 -58 -88 -91 -164 -120 -279 -58
-227 -37 -480 57 -676 92 -195 384 -433 1014 -827 l170 -106 34 -97 c49 -143
123 -304 174 -381 25 -37 51 -84 59 -103 149 -358 1114 -1323 2378 -2379 596
-498 1053 -849 1298 -997 59 -35 60 -41 4 -25 -17 5 -32 8 -32 6 0 -10 152
-91 235 -126 158 -66 275 -89 452 -89 261 0 438 32 643 115 423 171 705 418
784 684 18 61 19 71 8 88 -5 8 -31 -10 -82 -59 -144 -136 -416 -295 -655 -383
-55 -20 -147 -56 -205 -80 -268 -111 -535 -170 -826 -182 -149 -6 -229 0 -219
16 2 5 -10 15 -27 22 -44 18 -225 195 -372 363 -421 483 -1178 1478 -1860
2446 -236 335 -609 891 -708 1055 -36 61 -94 155 -129 210 -82 130 -193 349
-253 500 -43 107 -118 346 -112 353 2 1 50 -9 107 -23 297 -72 467 -89 804
-82 360 7 629 39 839 98 294 83 756 313 1197 595 262 168 459 317 459 347 0 6
-15 -3 -32 -20 -58 -55 -158 -113 -403 -233 -491 -241 -886 -383 -1317 -474
-375 -79 -714 -128 -1078 -157 -170 -13 -574 -18 -585 -7 -20 19 -46 238 -52
424 -11 378 20 525 219 1033 209 534 261 688 309 909 26 122 37 388 20 488
-25 145 -106 345 -193 475 l-44 65 78 -33 c105 -44 230 -81 352 -105 128 -24
486 -36 594 -19 213 33 454 172 668 386 234 233 347 452 373 720 4 50 9 73 10
52 2 -68 41 -238 82 -362 51 -154 130 -316 211 -430 84 -120 340 -377 504
-506 223 -176 614 -439 799 -538 359 -192 717 -527 975 -911 263 -393 471
-902 524 -1285 66 -474 72 -1541 16 -3045 -22 -573 -65 -1463 -75 -1525 -3
-20 -2 -25 4 -15 24 41 140 730 230 1365 122 853 201 1571 253 2290 17 244 18
1073 0 1174 -7 40 -27 119 -45 175 l-33 101 48 205 c129 552 172 804 172 1025
1 181 0 184 -80 350 -74 154 -144 255 -249 361 -145 146 -290 229 -491 280
-103 26 -151 23 -276 -16 -207 -64 -365 -248 -428 -497 l-11 -42 -65 39 c-35
22 -120 68 -187 101 -67 34 -248 129 -402 211 -599 320 -874 509 -1079 744
-183 209 -304 452 -377 754 -30 126 -34 137 -71 171 -72 69 -417 222 -685 305
l-122 38 -17 46 c-77 205 -267 472 -445 627 -108 94 -182 145 -326 222 -287
154 -546 241 -858 287 -124 18 -450 26 -570 13z m924 -1315 c93 -13 166 -29
301 -64 l36 -10 -110 -112 c-254 -261 -496 -589 -554 -750 -9 -28 -23 -48 -31
-48 -12 0 -12 -3 -3 -12 7 -7 12 -25 12 -41 0 -23 3 -27 13 -18 10 8 20 4 39
-17 108 -117 248 -354 315 -532 74 -195 68 -397 -18 -654 -85 -257 -239 -535
-538 -974 -82 -121 -182 -315 -236 -457 -21 -55 -41 -103 -44 -107 -4 -4 -31
13 -61 38 -132 109 -313 174 -487 174 -61 0 -52 -24 -87 240 -86 647 -103
1319 -45 1800 70 586 232 996 498 1260 167 167 345 255 591 293 67 11 313 6
409 -9z m1796 -195 c195 -18 335 -47 335 -70 0 -22 -87 -215 -128 -284 -109
-183 -336 -352 -596 -444 -96 -34 -283 -84 -297 -79 -4 2 8 28 28 58 49 76
126 240 158 335 59 180 75 261 75 387 l0 121 158 -7 c86 -4 207 -11 267 -17z
m-896 -109 c33 -16 43 -30 69 -92 53 -129 67 -213 67 -408 0 -96 -4 -205 -8
-241 l-8 -66 -102 -31 c-226 -69 -494 -103 -645 -82 -121 17 -273 68 -430 145
-117 57 -132 67 -123 83 19 35 258 259 356 332 110 82 269 172 446 251 102 46
312 127 332 128 4 1 25 -8 46 -19z m4022 -1646 c82 -43 173 -131 241 -232 65
-96 144 -262 159 -332 6 -30 20 -73 30 -95 33 -74 69 -404 84 -770 3 -82 8
-161 11 -175 3 -16 -7 -4 -27 30 -215 375 -373 596 -594 828 -132 139 -391
360 -482 410 -12 7 -9 17 17 63 98 166 226 275 360 306 74 17 121 9 201 -33z
m-6038 -1849 c61 -16 197 -80 236 -112 l24 -19 -31 -155 c-17 -85 -36 -206
-43 -269 -16 -146 -16 -479 0 -635 12 -112 51 -367 67 -431 12 -48 -478 521
-621 721 -103 145 -152 314 -142 490 7 112 26 176 77 253 93 139 264 201 433
157z"/>
<path d="M6600 4773 c0 -5 14 -75 30 -157 140 -694 175 -1227 101 -1519 -65
-251 -237 -606 -561 -1157 -77 -131 -140 -243 -140 -249 0 -8 9 -7 28 3 15 7
79 34 142 59 248 97 383 171 582 318 219 163 424 392 555 621 82 142 96 187
101 307 9 229 -92 660 -222 944 -101 222 -306 519 -517 749 -73 80 -99 101
-99 81z"/>
</g>
</svg>
