<?xml version="1.0" encoding="UTF-8"?>
<!DOCTYPE svg PUBLIC "-//W3C//DTD SVG 1.1//EN" "http://www.w3.org/Graphics/SVG/1.1/DTD/svg11.dtd">
<svg xmlns="http://www.w3.org/2000/svg" version="1.1" width="1462px" height="1584px" style="shape-rendering:geometricPrecision; text-rendering:geometricPrecision; image-rendering:optimizeQuality; fill-rule:evenodd; clip-rule:evenodd" xmlns:xlink="http://www.w3.org/1999/xlink">
<g><path style="opacity:0.987" fill="#000000" d="M 911.5,105.5 C 978.525,103.67 1042.86,115.837 1104.5,142C 1127.38,152.956 1150.04,164.289 1172.5,176C 1226.34,207.698 1272.17,248.531 1310,298.5C 1338.31,336.809 1354.64,379.809 1359,427.5C 1366.19,488.703 1355.19,546.37 1326,600.5C 1289.62,667.545 1237.45,718.379 1169.5,753C 1112.05,780.446 1052.05,788.446 989.5,777C 922.462,761.284 875.629,721.784 849,658.5C 836.606,625.312 835.939,591.978 847,558.5C 862.459,524.027 888.959,508.527 926.5,512C 942.497,514.001 951.997,522.835 955,538.5C 956.47,547.505 956.137,556.505 954,565.5C 954.84,600.685 972.673,621.519 1007.5,628C 1047.85,630.908 1076.68,614.074 1094,577.5C 1108.7,528.538 1103.37,481.871 1078,437.5C 1055.19,405.746 1024.36,386.579 985.5,380C 932.68,377.122 883.68,389.455 838.5,417C 776.001,458.161 722.501,508.994 678,569.5C 677.333,568.5 677.333,567.5 678,566.5C 718.105,502.723 768.938,448.89 830.5,405C 853.111,388.358 877.778,375.358 904.5,366C 939.569,355.872 974.903,354.872 1010.5,363C 1073.51,384.361 1109.01,428.194 1117,494.5C 1121.04,525.136 1117.37,554.803 1106,583.5C 1089.06,617.91 1061.22,635.577 1022.5,636.5C 988.071,635.874 964.904,619.541 953,587.5C 951.34,579.977 951.173,572.477 952.5,565C 951.669,556.512 949.503,548.346 946,540.5C 940.64,532.375 933.14,529.542 923.5,532C 902.183,539.108 890.849,553.941 889.5,576.5C 891.258,594.272 897.091,610.605 907,625.5C 920.119,647.619 937.619,665.452 959.5,679C 976.792,688.039 995.125,691.039 1014.5,688C 1043.57,682.46 1069.57,670.46 1092.5,652C 1132.71,619.778 1160.21,578.944 1175,529.5C 1186.39,489.906 1184.72,450.906 1170,412.5C 1156.4,376.469 1135.23,345.635 1106.5,320C 1076.07,294.604 1043.07,272.937 1007.5,255C 881.951,206.04 772.785,230.206 680,327.5C 627.483,384.052 596.316,450.885 586.5,528C 592.114,532.611 597.447,537.611 602.5,543C 596.82,542.944 591.154,542.444 585.5,541.5C 583.485,572.661 584.652,603.661 589,634.5C 575.829,604.487 567.329,573.154 563.5,540.5C 525.457,540.26 490.457,550.427 458.5,571C 427.789,592.043 401.289,617.543 379,647.5C 362.833,669.822 348.166,693.156 335,717.5C 319.456,747.921 304.456,778.588 290,809.5C 258.694,839.805 227.694,870.472 197,901.5C 175.541,924.62 155.207,948.62 136,973.5C 111.876,1009.55 118.376,1038.72 155.5,1061C 162.076,1064.46 168.743,1067.62 175.5,1070.5C 169.779,1071.33 164.113,1070.83 158.5,1069C 128.634,1059.99 102.801,1044.49 81,1022.5C 78.729,1019.88 78.0623,1016.88 79,1013.5C 91.8791,969.079 110.212,927.079 134,887.5C 158.714,846.064 186.381,806.731 217,769.5C 247.673,702.104 287.339,640.771 336,585.5C 357.808,561.675 381.974,540.842 408.5,523C 435.173,505.387 464.507,495.887 496.5,494.5C 519.139,494.792 540.306,500.459 560,511.5C 555.905,406.451 586.905,313.451 653,232.5C 692.973,186.27 741.14,151.437 797.5,128C 834.484,114.636 872.484,107.136 911.5,105.5 Z"/></g>
<g><path style="opacity:0.988" fill="#000000" d="M 541.5,1583.5 C 539.5,1583.5 537.5,1583.5 535.5,1583.5C 570.601,1495.3 612.101,1410.3 660,1328.5C 684.799,1289.9 711.799,1252.9 741,1217.5C 769.177,1183.64 801.344,1154.48 837.5,1130C 852.388,1115.79 869.388,1104.79 888.5,1097C 825.842,1047.38 774.008,988.546 733,920.5C 690.6,848.565 671.6,770.899 676,687.5C 680.634,635.552 699.301,589.552 732,549.5C 769.684,511.794 813.518,487.127 863.5,475.5C 835.614,490.882 810.114,509.549 787,531.5C 754.431,568.536 739.765,611.869 743,661.5C 746.136,702.573 756.803,741.573 775,778.5C 796.54,820.272 822.54,858.939 853,894.5C 895.767,944.601 941.934,991.434 991.5,1035C 1013.5,1053.67 1035.5,1072.33 1057.5,1091C 1073.14,1105.3 1087.31,1120.8 1100,1137.5C 1109.66,1153.86 1105.49,1165.02 1087.5,1171C 1061.59,1177.98 1035.59,1184.65 1009.5,1191C 991.743,1196.21 974.409,1202.55 957.5,1210C 901.001,1238.4 847.334,1271.06 796.5,1308C 777.244,1323.25 758.578,1339.25 740.5,1356C 668.741,1427.56 602.407,1503.39 541.5,1583.5 Z"/></g>
<g><path style="opacity:0.979" fill="#000000" d="M 531.5,1583.5 C 527.833,1583.5 524.167,1583.5 520.5,1583.5C 503.146,1514.9 485.979,1446.24 469,1377.5C 456.511,1333.21 444.178,1288.88 432,1244.5C 416.549,1194.26 393.215,1148.26 362,1106.5C 356.518,1099.72 350.685,1093.22 344.5,1087C 328.572,1077.95 311.905,1076.28 294.5,1082C 278.304,1087.76 263.638,1096.09 250.5,1107C 231.913,1123.42 214.913,1141.25 199.5,1160.5C 198.635,1161.58 197.635,1161.75 196.5,1161C 214.589,1125.15 237.589,1092.82 265.5,1064C 284.939,1047.95 306.939,1036.61 331.5,1030C 364.149,1021.45 391.316,1029.95 413,1055.5C 434.536,1077.03 452.203,1101.37 466,1128.5C 470.221,1137.61 473.888,1146.94 477,1156.5C 487.451,1193.31 497.118,1230.31 506,1267.5C 515.188,1372.83 523.688,1478.17 531.5,1583.5 Z"/></g>
</svg>
