<?xml version="1.0" encoding="UTF-8"?>
<!DOCTYPE svg PUBLIC "-//W3C//DTD SVG 1.1//EN" "http://www.w3.org/Graphics/SVG/1.1/DTD/svg11.dtd">
<svg xmlns="http://www.w3.org/2000/svg" version="1.1" width="1549px" height="1584px" style="shape-rendering:geometricPrecision; text-rendering:geometricPrecision; image-rendering:optimizeQuality; fill-rule:evenodd; clip-rule:evenodd" xmlns:xlink="http://www.w3.org/1999/xlink">
<g><path style="opacity:0.977" fill="#000000" d="M 1326.5,433.5 C 1327.56,432.4 1328.39,431.066 1329,429.5C 1330.97,448.398 1335.31,466.732 1342,484.5C 1347.6,495.753 1353.6,506.753 1360,517.5C 1371.67,535.167 1383.33,552.833 1395,570.5C 1406.5,599.504 1410.83,629.504 1408,660.5C 1405.05,685.039 1395.72,706.706 1380,725.5C 1367.41,740.601 1352.57,752.934 1335.5,762.5C 1335.17,763.333 1334.83,764.167 1334.5,765C 1346.54,814.547 1332.87,855.214 1293.5,887C 1270.14,908.673 1242.48,920.507 1210.5,922.5C 1207.18,921.947 1203.85,921.614 1200.5,921.5C 1200.09,928.723 1198.59,935.723 1196,942.5C 1177.84,988.645 1148.01,1025.15 1106.5,1052C 1083.62,1062.77 1060.29,1072.44 1036.5,1081C 1075.5,1093.55 1113.16,1109.22 1149.5,1128C 1161.18,1140.18 1165.34,1154.68 1162,1171.5C 1158.83,1186.84 1153.16,1201.17 1145,1214.5C 1139.2,1230.24 1133.2,1245.91 1127,1261.5C 1118.25,1273.32 1110.25,1285.66 1103,1298.5C 1067.63,1363.57 1037.46,1430.91 1012.5,1500.5C 1006.48,1455.37 1007.65,1410.37 1016,1365.5C 1023.78,1323.38 1035.45,1282.38 1051,1242.5C 1061.56,1221.03 1073.89,1200.7 1088,1181.5C 1091.84,1175.03 1093.34,1168.03 1092.5,1160.5C 1092.33,1156.83 1092.17,1153.17 1092,1149.5C 1091.91,1146.99 1091.07,1144.83 1089.5,1143C 1065.63,1122.45 1040.13,1104.28 1013,1088.5C 973.85,1100.25 934.017,1108.75 893.5,1114C 851.839,1113.35 810.172,1112.52 768.5,1111.5C 708.467,1108.27 651.134,1119.11 596.5,1144C 632.583,1161 646.75,1189.17 639,1228.5C 630.193,1260.78 616.526,1290.78 598,1318.5C 564.687,1342.58 532.187,1367.75 500.5,1394C 491.598,1402.23 483.431,1411.07 476,1420.5C 473.965,1423.56 472.799,1426.89 472.5,1430.5C 471.5,1430.5 470.5,1430.5 469.5,1430.5C 470.19,1414.25 473.69,1398.58 480,1383.5C 493.534,1346.1 510.534,1310.43 531,1276.5C 549.94,1259.9 568.607,1242.9 587,1225.5C 595.224,1216.72 602.224,1207.05 608,1196.5C 611.498,1185.3 610.832,1174.3 606,1163.5C 603.091,1156.68 599.424,1150.34 595,1144.5C 586.792,1149.24 577.959,1152.4 568.5,1154C 543.216,1159.39 518.216,1158.39 493.5,1151C 477.684,1144.84 465.184,1134.68 456,1120.5C 440.959,1091.34 432.959,1060.34 432,1027.5C 412.585,1014.95 391.752,1011.45 369.5,1017C 364.665,1018.91 360.331,1021.58 356.5,1025C 337.477,1043.27 319.977,1062.77 304,1083.5C 295.774,1093.39 285.607,1100.56 273.5,1105C 231.251,1122.75 187.418,1134.58 142,1140.5C 139.167,1140.33 136.333,1140.17 133.5,1140C 132.09,1139.63 131.09,1138.8 130.5,1137.5C 133.837,1137.38 137.171,1136.21 140.5,1134C 171.128,1110.05 199.961,1083.88 227,1055.5C 234.395,1047.94 241.229,1039.94 247.5,1031.5C 278.575,1008.97 312.909,993.466 350.5,985C 386.853,980.761 414.353,994.261 433,1025.5C 433.667,1026.83 434.333,1026.83 435,1025.5C 449.752,999.247 459.752,971.247 465,941.5C 469.176,913.937 472.509,886.271 475,858.5C 477.765,818.859 480.099,779.192 482,739.5C 488.639,699.954 497.306,660.954 508,622.5C 486.581,590.741 463.248,560.408 438,531.5C 426.393,533.528 415.226,537.028 404.5,542C 386.537,555.285 367.537,566.951 347.5,577C 260.654,606.078 172.32,611.912 82.5,594.5C 137.713,587.039 190.38,571.206 240.5,547C 268.149,533.177 295.482,518.843 322.5,504C 345.833,495 369.167,486 392.5,477C 420.846,468.635 446.013,474.135 468,493.5C 486.439,529.038 502.106,565.705 515,603.5C 524.907,574.111 536.574,545.444 550,517.5C 567.741,488.425 590.908,464.592 619.5,446C 628.535,440.818 637.535,435.651 646.5,430.5C 645.644,427.721 644.977,424.888 644.5,422C 645.698,416.219 646.531,410.386 647,404.5C 654.462,376.447 662.128,348.447 670,320.5C 674.4,304.775 676.4,288.775 676,272.5C 656.231,236.351 651.565,198.351 662,158.5C 678.494,114.005 709.328,84.5055 754.5,70C 838.845,55.8328 913.845,75.8328 979.5,130C 1006.45,155.084 1025.95,184.917 1038,219.5C 1034.81,215.315 1031.31,211.482 1027.5,208C 1019.14,205.936 1010.64,204.77 1002,204.5C 976.519,205.248 951.352,208.414 926.5,214C 924.369,214.543 922.369,215.376 920.5,216.5C 952.644,226.87 985.311,235.37 1018.5,242C 1053.27,250.061 1088.27,251.394 1123.5,246C 1130.61,244.805 1137.61,243.138 1144.5,241C 1154.06,236.703 1163.89,233.203 1174,230.5C 1176.5,230.816 1178,232.149 1178.5,234.5C 1177.53,237.774 1176.03,240.774 1174,243.5C 1148.91,269.942 1121.41,293.442 1091.5,314C 1053.91,335.434 1013.58,343.434 970.5,338C 947.535,336.51 925.869,330.51 905.5,320C 875.326,303.412 844.993,287.079 814.5,271C 801.753,264.719 788.753,264.052 775.5,269C 772.241,270.211 769.408,272.044 767,274.5C 744.571,305.001 724.904,337.334 708,371.5C 702.254,383.736 698.754,396.569 697.5,410C 698.218,426.045 706.718,433.879 723,433.5C 726.441,432.618 729.941,432.284 733.5,432.5C 734.578,448.487 738.912,463.487 746.5,477.5C 772.159,483.219 797.159,491.053 821.5,501C 838.884,506.386 855.884,505.386 872.5,498C 882.711,492.728 893.044,487.728 903.5,483C 910.021,480.685 916.354,481.019 922.5,484C 925.91,487.899 927.076,492.399 926,497.5C 916.417,529.005 906.917,560.505 897.5,592C 919.039,624.54 945.705,652.207 977.5,675C 996.227,689.453 1016.06,702.286 1037,713.5C 1045.83,711.084 1054.66,708.584 1063.5,706C 1071.09,700.541 1079.42,696.707 1088.5,694.5C 1093.51,694.346 1096.68,696.679 1098,701.5C 1101.59,748.605 1117.26,791.271 1145,829.5C 1155,842.171 1166.83,852.671 1180.5,861C 1192.69,866.532 1205.02,866.865 1217.5,862C 1239.81,851.027 1255.97,834.194 1266,811.5C 1267.36,807.239 1267.7,802.905 1267,798.5C 1260.27,784.044 1252.27,770.378 1243,757.5C 1227.96,736.77 1211.96,716.77 1195,697.5C 1174.21,670.255 1159.55,639.922 1151,606.5C 1147.31,589.279 1146.65,571.946 1149,554.5C 1156.45,505.619 1175.78,462.286 1207,424.5C 1227.18,402.317 1251.18,385.65 1279,374.5C 1279.62,375.449 1279.45,376.282 1278.5,377C 1221.12,418.915 1191.45,475.749 1189.5,547.5C 1190.25,573.254 1198.08,596.588 1213,617.5C 1224.02,632.528 1236.52,646.361 1250.5,659C 1270.26,675.425 1289.43,692.592 1308,710.5C 1312.68,717.866 1317.35,725.2 1322,732.5C 1326.11,740.176 1329.45,748.176 1332,756.5C 1346.79,734.144 1355.62,709.644 1358.5,683C 1357.91,671.715 1355.41,660.882 1351,650.5C 1343.84,637.501 1336.17,624.834 1328,612.5C 1316.01,570.955 1311.01,528.621 1313,485.5C 1315.37,467.576 1319.87,450.242 1326.5,433.5 Z M 1025.5,204.5 C 999.28,188.815 970.947,178.981 940.5,175C 928.167,174.333 915.833,174.333 903.5,175C 887.956,177.386 872.623,180.719 857.5,185C 842.484,186.406 827.484,187.906 812.5,189.5C 815.783,192.482 819.449,194.982 823.5,197C 865.66,219.248 909.326,237.915 954.5,253C 1013.21,269.72 1072.21,270.72 1131.5,256C 1140.29,253.459 1148.96,250.626 1157.5,247.5C 1116.73,292.109 1067.73,304.275 1010.5,284C 990.926,275.547 971.593,266.547 952.5,257C 909.119,246.964 865.286,239.798 821,235.5C 802.06,234.816 784.56,239.316 768.5,249C 761.184,255.797 756.017,263.964 753,273.5C 735.968,288.865 719.968,305.199 705,322.5C 709.508,310.499 714.341,298.499 719.5,286.5C 711.222,259.614 709.055,232.281 713,204.5C 717.167,183.676 728.333,167.843 746.5,157C 802.149,127.61 860.482,120.943 921.5,137C 963.452,148.483 998.118,170.983 1025.5,204.5 Z M 647.5,436.5 C 661.002,458.288 680.002,473.454 704.5,482C 722.093,488.232 740.093,492.898 758.5,496C 773.916,504.091 787.583,514.425 799.5,527C 824.021,542.258 850.521,548.091 879,544.5C 883.708,554.999 886.375,565.999 887,577.5C 897.397,616.472 916.23,650.639 943.5,680C 947.167,683 950.833,686 954.5,689C 978.949,700.706 1004.28,710.039 1030.5,717C 1044.5,725.664 1056.67,736.497 1067,749.5C 1092.87,785.577 1111.53,825.243 1123,868.5C 1141.23,896.416 1166.4,914.583 1198.5,923C 1179.5,963.314 1149.84,992.98 1109.5,1012C 1089.95,1018.44 1069.95,1023.11 1049.5,1026C 998.07,1032.86 946.404,1036.53 894.5,1037C 829.515,1046.04 765.682,1060.2 703,1079.5C 660.247,1093.96 621.08,1114.79 585.5,1142C 539.496,1140.08 501.33,1121.91 471,1087.5C 457.671,1071.99 446.505,1054.99 437.5,1036.5C 448.609,1024.88 458.443,1012.22 467,998.5C 489.953,960.324 508.287,919.991 522,877.5C 537.298,833.309 549.631,788.309 559,742.5C 560.666,715.187 561.999,687.854 563,660.5C 565.035,624.223 569.368,588.223 576,552.5C 587.031,505.699 610.864,467.033 647.5,436.5 Z"/></g>
<g><path style="opacity:0.933" fill="#000000" d="M 1326.5,433.5 C 1285.26,476.097 1272.76,526.097 1289,583.5C 1292.69,595.565 1297.35,607.232 1303,618.5C 1314.36,632.533 1323.69,647.866 1331,664.5C 1336.34,676.847 1338,689.514 1336,702.5C 1330.35,688.719 1321.85,676.886 1310.5,667C 1286.35,649.191 1266.85,627.358 1252,601.5C 1236.9,569.921 1230.07,536.588 1231.5,501.5C 1232.58,455.415 1247.75,414.749 1277,379.5C 1277.72,378.549 1278.55,378.383 1279.5,379C 1250.61,422.725 1239.78,470.558 1247,522.5C 1249.9,539.666 1253.57,556.666 1258,573.5C 1259.3,578.905 1261.47,583.905 1264.5,588.5C 1266.02,586.453 1266.85,584.119 1267,581.5C 1261.41,521.225 1281.08,471.225 1326,431.5C 1326.46,432.094 1326.63,432.761 1326.5,433.5 Z"/></g>
<g><path style="opacity:0.978" fill="#000000" d="M 400.5,627.5 C 411.088,627.587 418.255,632.587 422,642.5C 428.744,671.065 438.077,698.731 450,725.5C 460.076,752.729 468.743,780.395 476,808.5C 476.667,810.167 476.667,811.833 476,813.5C 451.465,777.1 425.465,741.766 398,707.5C 392.515,701.297 386.681,701.131 380.5,707C 366.682,719.154 352.015,730.154 336.5,740C 269.654,764.798 200.987,771.798 130.5,761C 116.26,758.607 102.26,755.273 88.5,751C 128.201,747.158 166.534,737.825 203.5,723C 237.022,708.576 269.022,691.576 299.5,672C 328.259,660.287 356.259,646.954 383.5,632C 389.087,629.688 394.754,628.188 400.5,627.5 Z"/></g>
<g><path style="opacity:0.976" fill="#000000" d="M 365.5,788.5 C 378.931,787.802 388.765,793.469 395,805.5C 397.61,811.053 399.943,816.719 402,822.5C 420.327,856.154 437.327,890.488 453,925.5C 453.667,927.167 453.667,928.833 453,930.5C 428.559,904.058 403.392,878.224 377.5,853C 376.034,852.365 374.7,851.531 373.5,850.5C 355.267,880.237 332.267,905.737 304.5,927C 285.112,935.931 264.779,941.598 243.5,944C 200.648,949.169 157.648,950.836 114.5,949C 105.11,948.512 95.7769,947.512 86.5,946C 83.0967,945.422 79.9301,944.255 77,942.5C 76.3333,941.833 76.3333,941.167 77,940.5C 77.6891,941.357 78.5224,942.023 79.5,942.5C 130.326,928.836 179.326,910.336 226.5,887C 237.497,881.17 248.164,874.837 258.5,868C 262.535,864.3 266.202,860.3 269.5,856C 281.892,852.803 293.225,847.469 303.5,840C 320.058,827.779 335.058,813.779 348.5,798C 353.647,793.763 359.314,790.596 365.5,788.5 Z"/></g>
<g><path style="opacity:0.978" fill="#000000" d="M 817.5,1114.5 C 817.735,1113.9 818.235,1113.57 819,1113.5C 835.036,1116.47 850.87,1120.3 866.5,1125C 907.954,1137.26 949.287,1149.93 990.5,1163C 1000.06,1169.33 1003.56,1178.16 1001,1189.5C 996.758,1206.32 989.091,1221.32 978,1234.5C 971.775,1249.28 965.275,1263.95 958.5,1278.5C 950.119,1287.58 942.953,1297.58 937,1308.5C 912.243,1354.35 889.91,1401.35 870,1449.5C 864.599,1462.87 860.099,1476.54 856.5,1490.5C 850.029,1460.17 847.862,1429.5 850,1398.5C 853.971,1348.29 865.637,1299.95 885,1253.5C 896.029,1233.44 909.029,1214.77 924,1197.5C 926,1194.83 926,1192.17 924,1189.5C 890.56,1161.56 855.06,1136.56 817.5,1114.5 Z"/></g>
<g><path style="opacity:0.978" fill="#000000" d="M 699.5,1120.5 C 717.754,1125.31 735.42,1131.81 752.5,1140C 773.445,1149.81 794.112,1160.14 814.5,1171C 825.644,1177.8 829.811,1187.63 827,1200.5C 824.816,1208.4 821.483,1215.73 817,1222.5C 796.886,1241.69 782.553,1264.69 774,1291.5C 763.92,1299.58 755.253,1308.91 748,1319.5C 718.917,1361.64 693.917,1406.31 673,1453.5C 668.739,1463.2 666.406,1473.2 666,1483.5C 655.672,1403.47 668.672,1327.47 705,1255.5C 716.421,1239.41 729.921,1225.24 745.5,1213C 747.414,1211.59 748.747,1209.75 749.5,1207.5C 745.358,1194.88 739.858,1182.88 733,1171.5C 721.978,1154.33 710.811,1137.33 699.5,1120.5 Z"/></g>
</svg>
