<?xml version="1.0" encoding="UTF-8"?>
<!DOCTYPE svg PUBLIC "-//W3C//DTD SVG 1.1//EN" "http://www.w3.org/Graphics/SVG/1.1/DTD/svg11.dtd">
<svg xmlns="http://www.w3.org/2000/svg" version="1.1" width="1584px" height="1585px" style="shape-rendering:geometricPrecision; text-rendering:geometricPrecision; image-rendering:optimizeQuality; fill-rule:evenodd; clip-rule:evenodd" xmlns:xlink="http://www.w3.org/1999/xlink">
<g><path style="opacity:0.985" fill="#000000" d="M 1225.5,98.5 C 1226.98,98.238 1228.31,98.5713 1229.5,99.5C 1160.04,120.374 1092.37,145.874 1026.5,176C 970.336,203.57 917.336,235.903 867.5,273C 807.836,304.943 756.003,346.776 712,398.5C 676.494,444.943 652.494,496.943 640,554.5C 637.561,566.86 635.061,579.194 632.5,591.5C 631.808,590.975 631.308,590.308 631,589.5C 573.746,676.322 518.746,764.655 466,854.5C 458.18,869.139 451.18,884.139 445,899.5C 424.319,929.511 405.653,960.844 389,993.5C 386.128,1000.28 383.962,1007.28 382.5,1014.5C 383.915,1018.21 385.248,1021.87 386.5,1025.5C 383.862,1051.55 381.029,1077.55 378,1103.5C 371.178,1094 364.011,1084.83 356.5,1076C 339.338,1064.25 322.005,1052.75 304.5,1041.5C 300.412,1025.8 298.412,1009.8 298.5,993.5C 300.722,933.67 317.556,878.337 349,827.5C 362.734,810.762 377.567,794.929 393.5,780C 469.767,711.079 548.767,645.745 630.5,584C 611.419,485.31 628.586,393.477 682,308.5C 707.694,269.12 738.194,233.62 773.5,202C 795.048,184.552 819.048,171.219 845.5,162C 937.369,127.492 1032.37,107.826 1130.5,103C 1162.32,101.379 1193.99,99.8792 1225.5,98.5 Z"/></g>
<g><path style="opacity:0.985" fill="#000000" d="M 1356.5,175.5 C 1384.85,175.263 1413.18,175.763 1441.5,177C 1450.77,177.157 1459.77,178.657 1468.5,181.5C 1459.53,181.38 1450.53,182.547 1441.5,185C 1322.1,214.913 1205.1,252.246 1090.5,297C 1076.57,302.965 1063.23,309.965 1050.5,318C 1001.67,333.053 954,351.053 907.5,372C 862.639,393.244 820.973,419.244 782.5,450C 746.152,485.576 722.652,527.743 712,576.5C 708.229,566.544 706.395,556.211 706.5,545.5C 710.141,485.037 731.641,432.037 771,386.5C 826.787,327.007 890.287,277.841 961.5,239C 977.323,231.255 992.99,223.255 1008.5,215C 1039.03,204.559 1070.37,197.559 1102.5,194C 1187.01,183.606 1271.68,177.44 1356.5,175.5 Z"/></g>
<g><path style="opacity:0.982" fill="#000000" d="M 942.5,465.5 C 960.083,493.563 978.083,521.896 996.5,550.5C 973.178,572.994 948.511,593.827 922.5,613C 893.663,631.251 864.997,649.751 836.5,668.5C 836.167,668 835.833,667.5 835.5,667C 844.137,642.757 852.97,618.59 862,594.5C 864.928,586.809 868.761,579.642 873.5,573C 842.404,572.691 813.404,580.358 786.5,596C 777.661,601.586 768.994,607.419 760.5,613.5C 759.82,607.377 760.653,601.377 763,595.5C 777.783,556.38 803.617,526.88 840.5,507C 873.025,488.883 907.025,475.049 942.5,465.5 Z"/></g>
<g><path style="opacity:0.983" fill="#000000" d="M 1151.5,717.5 C 1158.19,725.369 1164.36,733.702 1170,742.5C 1212.34,810.535 1235.18,884.702 1238.5,965C 1238.12,977.972 1236.62,990.805 1234,1003.5C 1228.42,1021.66 1220.42,1038.66 1210,1054.5C 1157.2,1132.35 1098.87,1206.02 1035,1275.5C 1029.62,1281.39 1023.78,1286.72 1017.5,1291.5C 1016.42,1290.64 1016.25,1289.64 1017,1288.5C 1044.91,1233.68 1070.91,1178.01 1095,1121.5C 1109.89,1086.05 1122.22,1049.72 1132,1012.5C 1137.32,984.609 1141.98,956.609 1146,928.5C 1149.92,891.445 1154.26,854.445 1159,817.5C 1160.62,783.838 1158.12,750.505 1151.5,717.5 Z"/></g>
<g><path style="opacity:0.984" fill="#000000" d="M 696.5,949.5 C 755.171,947.668 809.837,961.501 860.5,991C 877.605,1001.3 894.105,1012.47 910,1024.5C 962.366,1088.9 991.2,1162.73 996.5,1246C 995.985,1270.27 992.485,1294.11 986,1317.5C 984.246,1323.77 981.912,1329.77 979,1335.5C 976.216,1298.15 965.216,1263.49 946,1231.5C 912.168,1180.33 870.668,1136.16 821.5,1099C 806.471,1083.64 791.138,1068.64 775.5,1054C 758.705,1039.76 740.372,1027.76 720.5,1018C 680.468,999.074 644.135,1004.41 611.5,1034C 596.756,1049.07 583.923,1065.57 573,1083.5C 578.39,1005.62 619.556,960.951 696.5,949.5 Z"/></g>
<g><path style="opacity:0.985" fill="#000000" d="M 492.5,1034.5 C 493.124,1034.92 493.457,1035.58 493.5,1036.5C 489.945,1061.15 489.778,1085.82 493,1110.5C 496.017,1128.55 502.017,1145.55 511,1161.5C 512.025,1135.42 520.025,1111.76 535,1090.5C 541.582,1081.25 548.916,1072.58 557,1064.5C 555.424,1069.71 553.757,1075.04 552,1080.5C 549.563,1097.78 551.897,1114.45 559,1130.5C 564.806,1143.45 571.139,1156.11 578,1168.5C 589.273,1186.77 600.939,1204.77 613,1222.5C 634.773,1273.67 653.606,1325.67 669.5,1378.5C 633.64,1355.48 599.473,1330.15 567,1302.5C 574.296,1332.39 583.63,1361.73 595,1390.5C 596.663,1394.5 598.829,1398.16 601.5,1401.5C 600.635,1402.58 599.635,1402.75 598.5,1402C 547.593,1370.94 500.759,1334.44 458,1292.5C 451.951,1285.45 446.284,1278.12 441,1270.5C 433.364,1252.99 429.03,1234.66 428,1215.5C 420.663,1157.83 434.663,1106.16 470,1060.5C 477.336,1051.67 484.836,1043 492.5,1034.5 Z"/></g>
</svg>
