<?xml version="1.0" standalone="no"?>
<!DOCTYPE svg PUBLIC "-//W3C//DTD SVG 20010904//EN"
 "http://www.w3.org/TR/2001/REC-SVG-20010904/DTD/svg10.dtd">
<svg version="1.0" xmlns="http://www.w3.org/2000/svg"
 width="1462.000000pt" height="1405.000000pt" viewBox="0 0 1462.000000 1405.000000"
 preserveAspectRatio="xMidYMid meet">

<g transform="translate(0.000000,1405.000000) scale(0.100000,-0.100000)"
fill="#000000" stroke="none">
<path d="M5320 14042 c0 -15 57 -177 73 -208 14 -28 47 -63 47 -51 0 2 -11 29
-24 58 -13 30 -32 89 -41 132 -14 63 -20 77 -36 77 -10 0 -19 -4 -19 -8z"/>
<path d="M10980 13340 c-47 -5 -267 -20 -490 -35 -1944 -125 -3307 -399 -4390
-882 -602 -268 -1461 -819 -2380 -1527 -362 -278 -458 -386 -614 -684 -56
-108 -97 -169 -192 -287 -367 -455 -588 -810 -674 -1081 -18 -56 -23 -98 -25
-219 -4 -163 -20 -245 -72 -372 l-28 -68 -165 -88 c-430 -230 -696 -407 -822
-546 -64 -71 -135 -203 -174 -321 -23 -71 -27 -103 -28 -200 -1 -131 10 -183
63 -285 66 -128 268 -309 414 -370 l38 -16 -68 79 c-133 155 -182 268 -183
417 0 103 19 190 56 253 51 87 232 299 374 439 80 79 174 174 210 211 36 37
161 161 278 276 117 115 222 221 233 237 l20 29 -86 -40 c-48 -22 -88 -40 -90
-40 -2 0 34 56 80 124 94 140 155 261 180 356 40 156 154 322 436 640 278 312
331 382 429 565 166 311 318 515 447 601 l56 37 137 5 c574 20 1030 -204 1289
-632 162 -268 309 -720 314 -962 1 -45 5 -80 9 -78 9 6 35 88 48 159 21 104
151 299 278 416 121 112 422 300 631 394 305 137 455 185 574 185 117 0 233
-59 315 -161 150 -185 210 -375 213 -669 l1 -105 38 115 c95 290 92 539 -8
753 -102 218 -241 345 -421 387 -35 8 -92 11 -160 7 -213 -10 -553 -137 -791
-294 -289 -191 -511 -434 -610 -669 l-27 -65 -7 123 c-14 243 -50 408 -120
552 -153 313 -641 626 -1078 690 l-77 11 62 87 c205 286 510 586 828 815 264
189 663 405 974 526 971 379 2093 575 3730 653 l140 6 -40 -42 c-58 -61 -220
-165 -332 -215 -90 -39 -160 -63 -550 -185 -195 -61 -253 -106 -253 -197 0
-76 62 -133 210 -191 41 -17 644 -194 1339 -394 l1264 -363 -129 -7 c-460 -25
-704 -60 -885 -129 -211 -81 -259 -241 -119 -393 23 -25 151 -130 284 -233
799 -620 1027 -822 1279 -1138 75 -93 197 -269 197 -284 0 -10 -324 7 -444 24
-175 26 -367 30 -456 11 -103 -22 -177 -61 -215 -115 -27 -39 -30 -50 -30
-119 0 -66 5 -87 33 -143 63 -131 209 -298 391 -449 53 -44 126 -112 162 -152
373 -415 617 -856 706 -1278 23 -109 27 -149 27 -320 1 -150 -3 -218 -17 -292
-11 -54 -22 -100 -27 -103 -10 -6 -83 49 -179 134 -223 198 -283 249 -356 296
-94 61 -146 83 -219 91 -112 13 -212 -50 -268 -168 -48 -101 -57 -149 -88
-481 -19 -196 -74 -391 -170 -594 -70 -148 -140 -263 -307 -498 -81 -116 -224
-324 -317 -463 -94 -138 -172 -250 -174 -247 -3 2 1 46 7 98 20 155 -15 363
-84 504 -91 186 -271 245 -490 162 -252 -96 -465 -266 -1150 -919 -623 -594
-906 -835 -1081 -923 -39 -20 -138 -73 -220 -118 -291 -159 -526 -268 -616
-284 l-37 -7 6 94 c9 156 -29 263 -132 363 -46 45 -151 113 -160 103 -2 -2
-36 -235 -76 -518 -39 -283 -73 -517 -75 -519 -13 -15 -237 174 -380 321 -144
149 -253 288 -359 459 -80 129 -273 393 -380 519 -96 112 -265 275 -343 330
-34 24 -62 48 -62 54 0 5 43 82 97 170 174 290 249 494 273 751 11 120 0 288
-24 383 -8 28 -12 52 -9 52 2 0 39 -9 81 -20 287 -73 624 -73 913 0 430 109
894 399 1075 671 137 206 255 508 299 764 57 327 7 692 -137 1005 -44 96 -108
213 -113 208 -2 -2 4 -37 15 -78 39 -154 53 -294 47 -485 -4 -161 -8 -193 -36
-298 -84 -318 -222 -558 -471 -819 -59 -62 -131 -142 -161 -178 -114 -139
-288 -294 -447 -397 -105 -69 -322 -173 -432 -208 -136 -42 -297 -66 -491 -72
l-176 -6 -42 77 c-45 82 -149 200 -218 248 -100 68 -227 116 -383 145 -72 13
-146 17 -305 16 -387 -1 -588 -17 -934 -72 -474 -76 -877 -121 -1083 -121
-309 0 -606 205 -769 529 -22 44 -46 109 -53 144 l-13 62 -8 -95 c-8 -106 6
-252 35 -366 36 -138 108 -252 246 -384 201 -193 389 -279 819 -373 88 -20
193 -41 234 -48 l74 -13 -49 -40 c-621 -513 -1039 -1500 -1105 -2610 -7 -106
-9 -201 -6 -210 4 -10 28 -26 53 -38 93 -40 197 -8 258 80 14 21 50 109 80
197 64 190 199 484 286 627 192 314 444 578 780 818 57 41 126 96 153 123 26
26 52 47 58 47 16 0 10 -55 -21 -181 -46 -188 -55 -276 -36 -342 28 -98 126
-185 276 -249 l72 -29 117 65 c201 112 314 157 506 200 94 21 149 20 231 -5
288 -89 639 -417 962 -901 422 -631 1229 -1073 2097 -1149 284 -24 686 17
1140 117 937 207 1863 642 2688 1262 75 57 137 106 137 109 0 3 -12 -3 -27
-13 -616 -406 -1188 -694 -1782 -895 -591 -200 -1158 -299 -1726 -299 -510 0
-871 78 -1245 271 -166 85 -228 125 -204 132 27 8 352 84 394 92 166 33 442
136 695 259 437 212 850 478 1684 1080 298 215 486 346 500 346 4 0 13 -24 20
-52 14 -63 100 -246 173 -367 69 -113 207 -296 301 -397 75 -80 206 -194 223
-194 5 0 33 40 63 88 215 351 475 673 856 1062 127 129 257 270 289 314 187
250 374 636 531 1094 3 8 24 -10 54 -45 70 -83 310 -316 421 -408 168 -139
312 -221 348 -199 9 6 22 37 29 70 7 32 52 172 98 309 121 359 180 607 224
955 22 167 16 320 -19 525 -75 442 -240 840 -586 1415 -67 113 -126 213 -129
222 -5 14 3 18 51 24 137 17 351 -8 856 -101 167 -31 345 -59 396 -62 l92 -6
0 25 c0 77 -104 357 -211 568 -367 726 -949 1297 -1682 1650 l-160 77 139 7
c432 21 1021 109 1358 202 328 91 483 170 537 275 25 50 24 68 -3 73 -572 124
-1385 413 -2893 1029 -154 62 -311 124 -350 137 -90 30 -129 67 -120 113 10
46 66 129 117 169 24 19 122 74 218 121 443 218 680 408 680 546 0 70 -54 127
-150 156 -65 20 -307 28 -440 15z m-7955 -8320 c198 -21 616 -53 710 -53 33 0
182 3 330 8 227 6 284 5 361 -9 177 -31 269 -86 325 -197 84 -168 101 -467 43
-784 -23 -125 -17 -119 -82 -79 -70 41 -201 90 -291 108 -168 35 -310 28 -564
-24 -169 -35 -211 -38 -203 -12 18 62 31 212 31 367 0 197 -13 269 -61 332
-28 37 -45 48 -90 57 -27 6 -45 -3 -140 -65 -177 -117 -503 -351 -636 -457
-209 -167 -453 -409 -647 -642 -112 -135 -201 -230 -213 -230 -37 0 86 437
205 726 132 323 336 633 574 872 101 103 115 113 140 108 15 -3 109 -15 208
-26z"/>
<path d="M3100 8652 c-69 -37 -517 -548 -498 -567 6 -6 448 58 596 86 81 15
123 29 153 49 48 32 435 394 449 420 8 16 -4 17 -163 23 -95 4 -246 7 -337 7
-142 0 -170 -3 -200 -18z"/>
<path d="M11400 2989 c-22 -18 -22 -19 -3 -10 12 6 25 16 28 21 9 15 3 12 -25
-11z"/>
</g>
</svg>
