<?xml version="1.0" standalone="no"?>
<!DOCTYPE svg PUBLIC "-//W3C//DTD SVG 20010904//EN"
 "http://www.w3.org/TR/2001/REC-SVG-20010904/DTD/svg10.dtd">
<svg version="1.0" xmlns="http://www.w3.org/2000/svg"
 width="1585.000000pt" height="1297.000000pt" viewBox="0 0 1585.000000 1297.000000"
 preserveAspectRatio="xMidYMid meet">

<g transform="translate(0.000000,1297.000000) scale(0.100000,-0.100000)"
fill="#000000" stroke="none">
<path d="M14042 12208 c183 -225 316 -450 386 -656 78 -226 66 -520 -33 -752
-68 -162 -170 -289 -329 -409 -462 -348 -1019 -464 -1666 -345 -280 52 -336
70 -964 313 -212 83 -497 191 -633 242 -357 132 -1029 353 -1163 383 -508 112
-1005 12 -1239 -251 -118 -132 -222 -432 -252 -723 -10 -100 -5 -449 7 -438 1
2 12 47 24 101 32 148 86 310 145 434 179 378 434 544 752 489 127 -22 195
-50 443 -180 365 -192 586 -325 1174 -706 796 -514 992 -619 1260 -670 l58
-12 -6 -76 c-70 -810 -288 -2264 -450 -2998 -52 -234 -96 -391 -137 -489 -23
-55 -36 -115 -59 -280 -17 -115 -32 -220 -33 -232 -3 -19 38 -51 273 -217 153
-108 281 -196 284 -196 3 0 136 64 294 143 306 153 531 252 706 312 167 57
632 142 1326 241 184 27 328 50 320 51 -28 5 -443 53 -665 78 -551 61 -1002
80 -1210 51 -238 -34 -651 -128 -997 -229 l-117 -34 23 46 c129 258 313 1295
420 2366 54 536 82 1056 71 1304 l-7 154 37 -7 c59 -11 372 -8 487 4 482 53
945 211 1313 448 392 253 737 659 856 1009 53 158 64 232 63 433 0 152 -4 203
-22 286 -44 203 -125 397 -221 529 -106 145 -365 399 -507 496 l-49 33 37 -46z"/>
<path d="M6665 12156 c-83 -26 -84 -29 -14 -72 112 -67 301 -216 411 -322 230
-223 364 -434 439 -692 15 -52 50 -165 77 -250 101 -314 227 -825 239 -972 3
-38 10 -65 15 -62 32 20 96 251 128 469 30 198 38 565 16 730 -18 141 -66 335
-97 397 -78 155 -308 387 -542 546 -185 125 -336 196 -480 226 -90 19 -137 19
-192 2z"/>
<path d="M6363 10590 c-237 -27 -485 -121 -709 -269 -188 -124 -719 -585
-1129 -981 -88 -84 -326 -319 -530 -520 -203 -201 -395 -385 -425 -407 -160
-120 -447 -245 -719 -313 -223 -55 -298 -64 -536 -64 -251 -1 -362 16 -546 80
-204 71 -336 151 -446 268 -226 242 -282 631 -159 1108 19 73 38 142 41 153
15 42 -129 -205 -177 -305 -28 -58 -73 -171 -99 -252 -62 -188 -77 -302 -60
-459 46 -423 258 -767 620 -1007 262 -173 526 -284 842 -351 345 -73 787 -73
1158 2 l114 23 -7 -100 c-17 -248 -107 -960 -192 -1516 -149 -984 -292 -1682
-384 -1887 -28 -61 -52 -184 -80 -408 -6 -49 -13 -100 -15 -112 -4 -18 34 -49
276 -217 154 -108 284 -196 288 -196 4 0 54 34 112 75 222 159 571 310 924
399 213 54 724 142 1280 221 176 25 325 47 330 49 6 2 -21 6 -60 10 -38 4
-178 20 -310 36 -698 84 -1247 118 -1470 91 -227 -28 -596 -111 -989 -222
-115 -33 -210 -58 -212 -57 -1 2 22 64 51 138 223 562 417 1543 500 2520 35
423 40 648 22 1148 l-2 42 133 45 c190 64 300 120 428 219 141 108 244 218
397 421 114 152 211 296 659 975 208 315 408 602 518 740 99 124 282 297 389
368 205 135 410 183 595 141 78 -17 232 -97 321 -164 169 -129 199 -174 448
-675 754 -1511 1143 -2977 1114 -4200 -14 -578 -108 -1079 -287 -1530 -118
-297 -552 -1224 -870 -1860 -161 -322 -191 -394 -211 -514 -23 -139 20 -276
109 -341 90 -65 122 -70 452 -69 744 2 1478 90 2133 255 838 211 1834 622
2143 885 50 42 88 100 77 117 -6 11 7 14 -518 -113 -1005 -243 -1600 -362
-2370 -474 -132 -19 -312 -47 -400 -62 -205 -35 -461 -40 -536 -11 -71 27 -82
45 -77 120 5 77 51 179 166 365 197 318 419 755 555 1092 165 411 260 783 314
1230 26 213 26 848 0 1040 -43 314 -84 518 -243 1200 -188 808 -312 1241 -495
1729 -186 495 -421 965 -644 1286 -34 50 -99 144 -143 210 -141 211 -283 366
-462 506 -41 33 -109 86 -150 119 -216 174 -550 264 -847 230z"/>
<path d="M14640 5200 c0 -34 -158 -167 -348 -293 -266 -177 -697 -410 -952
-516 -52 -21 -151 -62 -219 -91 -192 -81 -323 -111 -511 -117 -135 -5 -166 -3
-244 16 -104 25 -224 79 -319 144 -37 26 -70 47 -72 47 -10 0 77 -122 137
-192 119 -137 263 -234 449 -299 215 -76 438 -103 663 -80 127 14 300 58 377
97 80 40 209 144 358 289 288 280 527 588 637 819 39 83 67 186 50 186 -3 0
-6 -4 -6 -10z"/>
<path d="M6218 3489 c-110 -155 -805 -579 -1273 -775 -60 -25 -162 -68 -226
-95 -64 -27 -170 -63 -235 -81 -113 -30 -129 -32 -304 -32 -167 -1 -192 1
-260 22 -92 29 -195 81 -279 139 -35 24 -65 42 -67 40 -7 -7 102 -153 165
-219 203 -216 490 -335 851 -355 218 -11 488 36 620 109 269 149 771 699 960
1051 71 133 108 281 48 196z"/>
</g>
</svg>
