<?xml version="1.0" standalone="no"?>
<!DOCTYPE svg PUBLIC "-//W3C//DTD SVG 20010904//EN"
 "http://www.w3.org/TR/2001/REC-SVG-20010904/DTD/svg10.dtd">
<svg version="1.0" xmlns="http://www.w3.org/2000/svg"
 width="1585.000000pt" height="1475.000000pt" viewBox="0 0 1585.000000 1475.000000"
 preserveAspectRatio="xMidYMid meet">

<g transform="translate(0.000000,1475.000000) scale(0.100000,-0.100000)"
fill="#000000" stroke="none">
<path d="M13381 12659 c-444 -24 -819 -143 -1223 -387 -64 -39 -280 -180 -480
-314 -677 -454 -902 -571 -1284 -669 -245 -62 -390 -80 -695 -86 -544 -11
-907 48 -1759 285 -157 44 -330 87 -385 96 -55 9 -149 28 -210 41 -610 132
-1514 87 -2226 -110 -364 -101 -768 -271 -1039 -437 -58 -36 -166 -102 -240
-148 -179 -110 -320 -205 -449 -303 -644 -489 -1228 -1201 -1606 -1960 -81
-162 -189 -421 -183 -438 2 -4 37 13 78 38 257 158 545 238 900 250 324 11
664 -45 1185 -193 239 -68 794 -239 925 -285 249 -87 532 -146 808 -170 159
-13 548 -7 697 11 658 79 1362 311 1975 652 85 47 198 109 250 138 52 29 246
153 430 275 184 122 387 254 450 292 876 532 1612 754 2359 713 229 -12 378
-28 761 -80 515 -70 559 -74 810 -74 191 0 261 4 375 22 165 26 341 68 480
115 80 27 96 35 77 41 -34 11 -218 135 -376 253 -480 361 -951 785 -1105 993
-71 96 -133 218 -152 300 -7 30 -13 91 -13 135 1 134 44 246 151 390 138 186
351 343 708 523 128 64 194 102 175 100 -8 0 -84 -5 -169 -9z m-66 -43 c-384
-97 -715 -265 -937 -474 -290 -274 -339 -667 -137 -1092 171 -359 492 -656
954 -886 258 -127 505 -203 730 -222 l90 -8 -100 -14 c-69 -10 -182 -15 -360
-15 -377 1 -506 23 -1125 191 -875 238 -1253 277 -1865 193 -581 -79 -1221
-301 -1867 -645 -90 -48 -281 -154 -425 -236 -145 -81 -274 -153 -287 -158
-14 -5 -108 -61 -208 -123 -642 -401 -1122 -611 -1642 -718 -142 -29 -431 -67
-441 -58 -2 3 0 75 5 160 28 468 21 913 -15 1053 -8 31 -15 73 -15 93 0 100
-177 506 -350 803 -137 234 -308 484 -402 586 -28 30 -36 45 -27 48 73 26 370
88 549 116 615 95 1373 68 1875 -67 72 -19 162 -38 200 -43 39 -5 201 -38 360
-73 557 -125 848 -169 1244 -186 627 -28 1195 76 1676 308 167 80 304 163 492
297 123 88 234 174 723 556 348 272 565 405 819 500 179 67 297 100 461 128
160 27 169 22 25 -14z m-8444 -1624 c253 -346 401 -714 524 -1302 14 -69 34
-153 45 -187 26 -84 55 -241 84 -463 26 -188 76 -641 76 -681 l0 -22 -182 6
c-255 9 -444 37 -1153 173 -792 152 -1117 188 -1481 165 -306 -18 -548 -79
-787 -195 -105 -51 -250 -141 -342 -211 l-39 -30 68 130 c395 753 987 1454
1623 1922 312 231 819 519 1128 642 114 46 352 129 370 130 6 0 35 -34 66 -77z"/>
<path d="M10711 8800 c-188 -11 -380 -32 -584 -66 -667 -109 -1429 -380 -1857
-661 -63 -41 -159 -103 -213 -137 -54 -33 -218 -143 -365 -242 -311 -211 -514
-335 -737 -450 -306 -158 -563 -259 -841 -330 -276 -70 -416 -88 -704 -88
-314 -1 -498 27 -960 145 -876 225 -1042 261 -1288 278 -202 14 -487 -7 -687
-50 -106 -23 -289 -78 -282 -85 3 -3 58 6 123 20 306 64 599 69 912 15 227
-38 384 -86 931 -281 539 -192 867 -283 1122 -314 158 -19 487 -21 639 -5 473
52 921 186 1405 420 272 132 408 210 932 534 95 59 189 115 210 124 21 9 88
49 148 89 399 262 913 484 1418 614 81 21 147 34 147 29 0 -6 -9 -27 -19 -47
-32 -63 -88 -233 -110 -333 -59 -274 -50 -650 24 -984 20 -88 38 -138 94 -250
153 -304 485 -772 730 -1028 52 -53 92 -99 90 -101 -9 -9 -245 -57 -366 -76
-223 -34 -390 -43 -693 -37 -394 7 -662 41 -1150 143 -118 25 -251 50 -295 55
-44 5 -203 31 -353 59 -507 93 -836 133 -1222 149 -777 33 -1504 -101 -2065
-381 -231 -116 -419 -229 -860 -518 -320 -210 -436 -280 -570 -347 -219 -110
-529 -205 -770 -238 l-50 -6 77 44 c260 150 695 500 939 755 204 214 320 396
338 532 5 36 16 90 25 120 25 87 30 230 13 345 -31 200 -112 362 -242 483 -98
92 -177 133 -394 207 -367 123 -623 171 -1036 194 -215 11 -227 3 -69 -44 616
-183 1005 -359 1152 -520 124 -136 157 -285 111 -508 -25 -126 -47 -189 -110
-331 -189 -418 -722 -1229 -844 -1282 -28 -13 -27 -13 30 -9 33 3 116 7 185
10 225 9 443 53 710 143 202 68 291 108 730 322 212 103 417 202 455 218 376
162 642 235 1035 284 136 17 674 17 830 0 449 -49 786 -118 1445 -297 350 -94
530 -126 1025 -182 225 -25 902 -25 1112 0 644 78 1185 261 1630 552 123 81
418 301 718 536 655 513 845 643 1181 809 329 162 610 230 952 230 145 0 337
-17 355 -32 6 -6 12 -7 11 -2 -1 12 -279 271 -427 398 -603 515 -1271 899
-1962 1124 -230 75 -758 206 -950 236 -295 45 -623 62 -909 46z m694 -331 c88
-5 210 -17 270 -25 61 -8 182 -23 270 -35 823 -105 1717 -467 2495 -1012 183
-128 486 -367 465 -367 -4 0 -41 9 -83 20 -197 50 -422 68 -617 51 -556 -51
-962 -225 -1925 -826 -157 -98 -330 -208 -385 -245 -202 -136 -380 -229 -600
-315 -98 -38 -241 -85 -259 -85 -10 0 -163 236 -262 405 -109 186 -337 637
-388 766 -44 114 -66 192 -66 239 0 20 -16 89 -35 155 -81 273 -122 568 -112
795 9 189 51 384 85 394 45 14 326 56 468 70 266 27 448 31 679 15z"/>
<path d="M5635 4613 c-684 -23 -1281 -262 -1830 -732 -232 -199 -504 -507
-641 -726 l-19 -30 31 25 c18 14 88 72 156 130 503 423 1049 681 1593 751 116
15 411 14 545 -1 423 -47 847 -172 1344 -395 190 -85 334 -157 661 -331 221
-117 327 -166 585 -270 404 -162 580 -228 870 -326 616 -207 1107 -324 1700
-405 167 -22 673 -26 840 -5 296 36 582 100 845 187 145 48 388 146 408 164 4
4 -23 0 -61 -10 -194 -49 -502 -74 -822 -66 -675 17 -1115 139 -1890 523 -363
180 -563 291 -1170 653 -195 117 -404 236 -465 267 -111 55 -525 208 -818 303
-407 131 -820 223 -1192 265 -132 15 -511 38 -565 34 -14 -1 -61 -3 -105 -5z"/>
</g>
</svg>
