<?xml version="1.0" encoding="UTF-8"?>
<!DOCTYPE svg PUBLIC "-//W3C//DTD SVG 1.1//EN" "http://www.w3.org/Graphics/SVG/1.1/DTD/svg11.dtd">
<svg xmlns="http://www.w3.org/2000/svg" version="1.1" width="1801px" height="1585px" style="shape-rendering:geometricPrecision; text-rendering:geometricPrecision; image-rendering:optimizeQuality; fill-rule:evenodd; clip-rule:evenodd" xmlns:xlink="http://www.w3.org/1999/xlink">
<g><path style="opacity:0.974" fill="#000000" d="M 510.5,74.5 C 511.152,75.4486 511.486,76.6153 511.5,78C 507.428,110.542 507.595,143.042 512,175.5C 521.927,227.713 549.427,267.546 594.5,295C 620.372,309.962 647.706,321.628 676.5,330C 727.623,343.758 779.29,355.092 831.5,364C 892.939,376.035 951.605,396.035 1007.5,424C 1030.91,436.756 1053.24,451.089 1074.5,467C 1110.06,494.922 1132.9,531.089 1143,575.5C 1143.41,575.957 1143.91,576.291 1144.5,576.5C 1174.18,564.492 1203.52,551.658 1232.5,538C 1281.97,513.432 1330.97,488.099 1379.5,462C 1329.39,456.075 1282.39,440.742 1238.5,416C 1263.93,420.848 1289.6,424.515 1315.5,427C 1357.23,431.12 1397.23,424.787 1435.5,408C 1464.62,394.272 1493.62,380.272 1522.5,366C 1544.36,355.491 1567.03,347.158 1590.5,341C 1606.74,336.787 1611.24,341.954 1604,356.5C 1591.6,371.903 1578.1,386.403 1563.5,400C 1549.67,411.833 1535.83,423.667 1522,435.5C 1516,442.833 1510,450.167 1504,457.5C 1476.78,483.374 1451.78,511.041 1429,540.5C 1394.28,592.279 1367.28,647.946 1348,707.5C 1352.91,640.351 1367.08,575.184 1390.5,512C 1390.17,511.5 1389.83,511 1389.5,510.5C 1326.57,540.626 1264.91,572.793 1204.5,607C 1186.29,616.604 1167.96,625.938 1149.5,635C 1150.63,653.46 1148.46,671.626 1143,689.5C 1130.26,726.969 1113.26,762.302 1092,795.5C 1083.75,807.663 1075.75,819.996 1068,832.5C 1030.39,885.779 992.388,938.779 954,991.5C 937.276,1015.23 920.942,1039.23 905,1063.5C 871.787,1120.48 853.953,1181.98 851.5,1248C 853.816,1323.96 884.149,1385.96 942.5,1434C 937.204,1432.18 932.204,1429.51 927.5,1426C 889.349,1397.2 861.183,1360.7 843,1316.5C 836.129,1297.02 831.463,1277.02 829,1256.5C 752.54,1177.98 692.207,1088.32 648,987.5C 626.381,940.645 608.714,892.312 595,842.5C 588.463,816.981 582.63,791.315 577.5,765.5C 559.529,762.504 541.529,760.004 523.5,758C 510.218,775.391 498.051,793.558 487,812.5C 467.129,835.7 448.796,860.034 432,885.5C 440.853,855.779 452.52,827.112 467,799.5C 479.5,783 494,768.5 510.5,756C 487.692,752.338 464.858,748.838 442,745.5C 440.833,745.833 439.667,746.167 438.5,746.5C 428.173,760.486 418.339,774.819 409,789.5C 387.934,810.563 367.601,832.23 348,854.5C 360.522,824.123 376.189,795.456 395,768.5C 404.167,760 413.333,751.5 422.5,743C 401.936,739.678 381.269,737.678 360.5,737C 347.458,751.372 335.958,766.872 326,783.5C 308.204,804.43 291.871,826.43 277,849.5C 283.198,823.578 292.198,798.578 304,774.5C 308.314,767.398 313.481,760.898 319.5,755C 327.212,748.286 335.212,741.953 343.5,736C 334.49,734.845 325.323,734.345 316,734.5C 307.167,734.833 298.333,735.167 289.5,735.5C 281.53,747.969 273.363,760.302 265,772.5C 262.833,774.667 260.667,776.833 258.5,779C 242.989,789.922 227.656,801.089 212.5,812.5C 212.167,812.167 211.833,811.833 211.5,811.5C 221.919,793.657 233.085,776.323 245,759.5C 253.74,751.881 262.574,744.381 271.5,737C 238.771,738.266 207.771,746.266 178.5,761C 149.247,776.258 131.414,800.091 125,832.5C 118.445,864.841 119.278,897.008 127.5,929C 127.333,929.833 127.167,930.667 127,931.5C 116.914,903.063 112.247,873.73 113,843.5C 117.21,795.21 140.377,759.377 182.5,736C 212.463,720.457 244.129,710.124 277.5,705C 268.036,697.204 258.869,689.038 250,680.5C 245.062,666.081 241.395,651.414 239,636.5C 248.304,644.803 257.304,653.469 266,662.5C 272.844,676.023 279.011,689.856 284.5,704C 306.426,701.895 328.426,700.229 350.5,699C 334.32,679.473 319.487,658.973 306,637.5C 298.379,613.674 291.713,589.674 286,565.5C 299.077,583.316 311.41,601.649 323,620.5C 333.793,646.38 344.293,672.38 354.5,698.5C 380.438,698.65 406.271,700.317 432,703.5C 433.167,703.333 434.333,703.167 435.5,703C 421.843,680.856 409.343,658.023 398,634.5C 393.03,609.986 388.197,585.486 383.5,561C 384.167,560.333 384.833,560.333 385.5,561C 397.398,583.297 408.898,605.797 420,628.5C 427.13,653.688 433.63,679.021 439.5,704.5C 457.496,705.5 475.496,706.5 493.5,707.5C 496.5,707.167 499.5,706.833 502.5,706.5C 491.179,684.193 480.679,661.527 471,638.5C 464.578,607.301 459.245,575.967 455,544.5C 467.242,570.884 478.908,597.551 490,624.5C 497.78,652.284 504.613,680.284 510.5,708.5C 529.833,708.5 549.167,708.5 568.5,708.5C 548.598,581.248 557.932,456.248 596.5,333.5C 596.471,331.971 595.804,330.804 594.5,330C 564.238,311.072 540.071,286.238 522,255.5C 510.832,233.833 504.165,210.833 502,186.5C 498.667,163.5 498.667,140.5 502,117.5C 504.362,103.056 507.195,88.7228 510.5,74.5 Z M 598.5,333.5 C 638.742,357.783 681.409,376.949 726.5,391C 779.106,405.202 830.773,422.202 881.5,442C 928.954,460.377 972.287,485.377 1011.5,517C 1030.7,533.553 1042.53,554.387 1047,579.5C 1048.96,589.768 1049.96,600.101 1050,610.5C 1006.59,625.312 962.757,638.812 918.5,651C 863.586,665.145 808.586,678.812 753.5,692C 698.263,701.961 642.596,707.294 586.5,708C 561.758,582.208 565.758,457.375 598.5,333.5 Z M 1042.5,679.5 C 1043.61,680.946 1043.78,682.613 1043,684.5C 1032.68,733.466 1014.34,779.133 988,821.5C 957.993,869.505 928.993,918.172 901,967.5C 881.828,1003.18 864.828,1039.84 850,1077.5C 829.753,1133.89 822.419,1191.89 828,1251.5C 760.862,1174.88 708.195,1088.88 670,993.5C 640.44,919.652 616.606,843.985 598.5,766.5C 678.917,770.447 758.25,762.947 836.5,744C 906.768,727.186 975.435,705.686 1042.5,679.5 Z"/></g>
</svg>
