<?xml version="1.0" encoding="UTF-8"?>
<!DOCTYPE svg PUBLIC "-//W3C//DTD SVG 1.1//EN" "http://www.w3.org/Graphics/SVG/1.1/DTD/svg11.dtd">
<svg xmlns="http://www.w3.org/2000/svg" version="1.1" width="1585px" height="1440px" style="shape-rendering:geometricPrecision; text-rendering:geometricPrecision; image-rendering:optimizeQuality; fill-rule:evenodd; clip-rule:evenodd" xmlns:xlink="http://www.w3.org/1999/xlink">
<g><path style="opacity:0.977" fill="#000000" d="M 1221.5,51.5 C 1241.84,51.3334 1262.17,51.5 1282.5,52C 1226.82,65.8445 1176.15,89.8445 1130.5,124C 1143.58,120.568 1156.91,118.068 1170.5,116.5C 1187.63,119.154 1203.96,124.32 1219.5,132C 1247.42,144.621 1274.09,159.288 1299.5,176C 1301.95,177.74 1303.45,179.907 1304,182.5C 1302.6,181.773 1301.1,181.273 1299.5,181C 1262.1,179.766 1224.77,180.766 1187.5,184C 1180.89,184.574 1174.39,185.741 1168,187.5C 1134.67,182.755 1101.17,180.589 1067.5,181C 1054.19,195.3 1042.03,210.467 1031,226.5C 996.242,260.632 971.242,300.966 956,347.5C 940.742,401.404 945.075,453.738 969,504.5C 973.706,514.078 978.539,523.578 983.5,533C 981.024,532.253 978.691,530.919 976.5,529C 970.216,522.261 964.05,515.428 958,508.5C 911.917,551.547 872.25,599.547 839,652.5C 821.028,685.078 805.361,718.744 792,753.5C 757.874,810.54 735.207,871.874 724,937.5C 717.724,983.568 718.224,1029.57 725.5,1075.5C 725.167,1076.17 724.833,1076.83 724.5,1077.5C 690.608,1015.26 674.274,948.596 675.5,877.5C 675.942,862.904 676.942,848.404 678.5,834C 666.081,829.874 654.581,824.041 644,816.5C 628.781,840.383 612.781,863.716 596,886.5C 586.873,894.482 576.373,899.982 564.5,903C 523.824,914.001 482.491,918.001 440.5,915C 438.579,914.64 436.912,913.806 435.5,912.5C 440.434,912.534 445.434,911.701 450.5,910C 488.225,898.135 523.558,881.468 556.5,860C 560.462,856.877 563.462,853.043 565.5,848.5C 589.592,831.406 610.259,811.073 627.5,787.5C 635.918,787.962 644.251,788.962 652.5,790.5C 654.667,795.5 656.833,800.5 659,805.5C 664.706,812.874 671.373,819.207 679,824.5C 682.86,790.394 690.193,757.061 701,724.5C 703.746,718.358 706.413,712.358 709,706.5C 695.993,697.326 684.827,686.326 675.5,673.5C 655.112,697.06 633.778,719.894 611.5,742C 602.433,747.358 592.767,751.358 582.5,754C 529.835,769.512 477.835,767.678 426.5,748.5C 481.868,751.099 532.534,736.932 578.5,706C 610.821,690.852 641.154,672.686 669.5,651.5C 687.692,663.522 703.526,678.189 717,695.5C 733.957,672.114 752.457,649.947 772.5,629C 762.998,606.815 750.831,586.315 736,567.5C 731.252,570.791 726.419,573.958 721.5,577C 713.199,584.48 704.533,591.48 695.5,598C 639.988,619.314 586.655,614.981 535.5,585C 570.114,591.532 603.781,588.198 636.5,575C 658.885,562.808 681.551,551.141 704.5,540C 705.5,539 706.5,538 707.5,537C 715.766,532.581 724.266,528.748 733,525.5C 739.095,528.602 744.929,532.102 750.5,536C 756.601,540.627 759.435,546.793 759,554.5C 764.357,564.227 768.357,574.56 771,585.5C 774.088,598.362 776.421,611.362 778,624.5C 808.601,595.554 841.768,570.054 877.5,548C 860.762,525.258 843.262,503.092 825,481.5C 818.799,473.597 812.965,465.431 807.5,457C 805.721,457.044 804.055,457.711 802.5,459C 792.459,468.043 782.126,476.71 771.5,485C 761.983,489.547 751.983,492.547 741.5,494C 693.202,500.804 644.868,501.138 596.5,495C 594.22,494.767 592.22,493.934 590.5,492.5C 634.094,485.766 676.761,474.599 718.5,459C 732.232,454.305 744.565,447.305 755.5,438C 768.961,430.7 782.295,423.2 795.5,415.5C 805.735,418.014 816.069,420.014 826.5,421.5C 844.762,463.027 862.762,504.693 880.5,546.5C 905.024,532.403 930.024,519.07 955.5,506.5C 901.156,438.635 884.656,362.301 906,277.5C 915.824,236.527 933.157,199.194 958,165.5C 995.93,129.29 1039.43,101.456 1088.5,82C 1131.42,65.0173 1175.75,54.8506 1221.5,51.5 Z"/></g>
<g><path style="opacity:0.983" fill="#000000" d="M 1584.5,300.5 C 1584.5,334.5 1584.5,368.5 1584.5,402.5C 1575.44,464.292 1554.27,521.626 1521,574.5C 1475.94,625.495 1420.78,661.329 1355.5,682C 1297.86,698.102 1240.53,697.102 1183.5,679C 1224.69,677.097 1264.35,668.43 1302.5,653C 1346.51,631.668 1383.34,601.502 1413,562.5C 1422.83,549.516 1432.16,536.183 1441,522.5C 1457.79,506.887 1473.29,490.22 1487.5,472.5C 1486.45,445.531 1482.95,418.864 1477,392.5C 1475.84,387.847 1474.01,383.513 1471.5,379.5C 1474.13,369.352 1475.63,359.018 1476,348.5C 1477.9,322.161 1477.9,295.828 1476,269.5C 1475.7,266.026 1474.87,262.692 1473.5,259.5C 1474.36,258.417 1475.36,258.251 1476.5,259C 1500.92,286.772 1521.42,317.272 1538,350.5C 1539.54,354.773 1540.87,359.106 1542,363.5C 1542.63,373.919 1542.29,384.252 1541,394.5C 1560.29,356.971 1572.95,317.304 1579,275.5C 1581.05,283.919 1582.88,292.252 1584.5,300.5 Z"/></g>
<g><path style="opacity:0.939" fill="#000000" d="M 1106.5,368.5 C 1121.03,395.307 1126.53,423.974 1123,454.5C 1115.83,501.664 1088.33,525.164 1040.5,525C 1012.02,521.013 988.183,508.846 969,488.5C 985.909,498.692 1004.08,505.525 1023.5,509C 1059.8,512.103 1084.3,496.603 1097,462.5C 1106.18,431.719 1109.34,400.386 1106.5,368.5 Z"/></g>
<g><path style="opacity:0.929" fill="#000000" d="M 1240.5,484.5 C 1247.51,484.334 1254.51,484.5 1261.5,485C 1236.4,490.387 1213.4,500.387 1192.5,515C 1175.08,533.754 1165.08,555.921 1162.5,581.5C 1164.28,603.557 1172.95,622.39 1188.5,638C 1196.81,644.822 1205.48,651.156 1214.5,657C 1215.71,657.893 1215.71,658.726 1214.5,659.5C 1192.48,650.951 1173.64,637.951 1158,620.5C 1143.32,597.75 1138.65,573.084 1144,546.5C 1155.93,520.573 1175.43,503.073 1202.5,494C 1215.06,489.86 1227.73,486.693 1240.5,484.5 Z"/></g>
<g><path style="opacity:0.973" fill="#000000" d="M 1211.5,690.5 C 1212.15,691.449 1212.49,692.615 1212.5,694C 1210.54,706.99 1207.87,719.823 1204.5,732.5C 1232.01,744.059 1260.34,753.559 1289.5,761C 1308.31,764.878 1327.14,765.378 1346,762.5C 1353,771.833 1360,781.167 1367,790.5C 1368.06,801.344 1365.73,811.344 1360,820.5C 1354.61,840.175 1350.94,860.175 1349,880.5C 1345.37,911.436 1344.37,942.436 1346,973.5C 1346.37,976 1347.21,978.333 1348.5,980.5C 1348,980.833 1347.5,981.167 1347,981.5C 1344.24,978.31 1342.24,974.644 1341,970.5C 1325.61,925.029 1316.44,878.362 1313.5,830.5C 1312.71,820.979 1314.04,811.812 1317.5,803C 1306.65,797.713 1295.32,793.38 1283.5,790C 1274.59,786.547 1265.93,782.547 1257.5,778C 1238.9,766.453 1220.74,754.286 1203,741.5C 1192.3,780.764 1178.13,818.764 1160.5,855.5C 1180.75,862.235 1201.42,868.068 1222.5,873C 1230.46,874.263 1238.46,875.263 1246.5,876C 1254.05,882.548 1261.88,888.715 1270,894.5C 1270.02,913.698 1269.19,932.865 1267.5,952C 1267.77,953.514 1268.1,955.014 1268.5,956.5C 1266.04,963.28 1264.54,970.28 1264,977.5C 1261.81,1015.19 1262.14,1052.86 1265,1090.5C 1265.63,1097.55 1266.63,1104.55 1268,1111.5C 1268.72,1115.65 1270.22,1119.49 1272.5,1123C 1271.5,1123.67 1270.5,1123.67 1269.5,1123C 1268.21,1121.59 1267.05,1120.09 1266,1118.5C 1243.73,1073.37 1228.07,1026.03 1219,976.5C 1218.86,964.044 1220.19,951.71 1223,939.5C 1226.33,927.184 1229.5,914.851 1232.5,902.5C 1224.3,901.156 1216.64,898.322 1209.5,894C 1191.96,883.634 1174.3,873.467 1156.5,863.5C 1136.86,898.787 1114.86,932.454 1090.5,964.5C 1111.53,975.241 1133.2,984.741 1155.5,993C 1165.21,993.561 1174.88,994.561 1184.5,996C 1189.67,1003.17 1194.83,1010.33 1200,1017.5C 1200.03,1033.89 1199.03,1050.22 1197,1066.5C 1179.73,1118.65 1163.06,1170.98 1147,1223.5C 1145.86,1204.72 1145.36,1185.88 1145.5,1167C 1144.99,1132.44 1146.16,1097.94 1149,1063.5C 1151.7,1051.04 1154.86,1038.71 1158.5,1026.5C 1149.92,1022.88 1141.59,1018.71 1133.5,1014C 1117.02,1000.59 1100.35,987.426 1083.5,974.5C 1075.38,984.456 1066.38,993.623 1056.5,1002C 1031.75,1018.38 1005.75,1032.71 978.5,1045C 1003.29,1052.27 1027.63,1060.93 1051.5,1071C 1060.88,1072.32 1070.21,1073.82 1079.5,1075.5C 1083.79,1083.91 1088.45,1092.08 1093.5,1100C 1092.33,1100.5 1091.5,1101.33 1091,1102.5C 1086.26,1118.38 1080.93,1134.05 1075,1149.5C 1072.58,1154 1069.92,1158.33 1067,1162.5C 1037.51,1200.67 1006.51,1237.67 974,1273.5C 991.908,1227.13 1010.24,1180.8 1029,1134.5C 1034.7,1122.81 1041.2,1111.65 1048.5,1101C 1043.83,1098.33 1039.17,1095.67 1034.5,1093C 1014.97,1076.32 994.135,1061.49 972,1048.5C 906.779,1077.26 838.946,1095.93 768.5,1104.5C 791.608,1091.23 814.608,1077.73 837.5,1064C 894.194,1026.01 946.194,982.008 993.5,932C 1038.34,898.181 1080.5,861.015 1120,820.5C 1147.39,789.466 1170.55,758.466 1189.5,727.5C 1197.1,715.304 1204.43,702.971 1211.5,690.5 Z"/></g>
<g><path style="opacity:0.981" fill="#000000" d="M 250.5,928.5 C 251.239,928.369 251.906,928.536 252.5,929C 171.06,990.325 145.56,1069.82 176,1167.5C 192.675,1202.51 218.842,1227.67 254.5,1243C 263.269,1246.92 272.269,1250.26 281.5,1253C 401.223,1281.04 514.89,1265.37 622.5,1206C 680.057,1170.77 723.224,1122.61 752,1061.5C 754.066,1056.64 755.732,1051.64 757,1046.5C 757.667,1051.83 757.667,1057.17 757,1062.5C 750.862,1091.91 740.195,1119.58 725,1145.5C 695.119,1197.38 654.952,1239.55 604.5,1272C 513.294,1331.29 413.294,1357.95 304.5,1352C 247.108,1341.73 198.942,1315.23 160,1272.5C 123.488,1225.27 109.155,1171.94 117,1112.5C 128.071,1026.62 172.571,965.283 250.5,928.5 Z"/></g>
</svg>
