<?xml version="1.0" encoding="UTF-8"?>
<!DOCTYPE svg PUBLIC "-//W3C//DTD SVG 1.1//EN" "http://www.w3.org/Graphics/SVG/1.1/DTD/svg11.dtd">
<svg xmlns="http://www.w3.org/2000/svg" version="1.1" width="1261px" height="1584px" style="shape-rendering:geometricPrecision; text-rendering:geometricPrecision; image-rendering:optimizeQuality; fill-rule:evenodd; clip-rule:evenodd" xmlns:xlink="http://www.w3.org/1999/xlink">
<g><path style="opacity:0.983" fill="#000000" d="M 609.5,55.5 C 610.601,54.4017 611.934,54.235 613.5,55C 633.085,64.9309 652.418,75.2642 671.5,86C 705.5,101.333 739.5,116.667 773.5,132C 829.5,152.667 885.5,173.333 941.5,194C 987.336,217.836 1020.84,253.336 1042,300.5C 1052.1,328.581 1054.1,357.248 1048,386.5C 1040.63,421.397 1026.13,452.897 1004.5,481C 1011.97,477.59 1019.31,473.59 1026.5,469C 1048.69,454.404 1070.36,439.071 1091.5,423C 1098.42,413.412 1106.08,404.412 1114.5,396C 1115.74,395.544 1116.58,396.044 1117,397.5C 1117.67,398.833 1117.67,400.167 1117,401.5C 1115.41,403.67 1114.08,406.004 1113,408.5C 1102.24,452.99 1092.24,497.657 1083,542.5C 1081.47,555.771 1076.47,567.438 1068,577.5C 1052.53,594.805 1035.03,609.639 1015.5,622C 1067.75,660.011 1095.58,711.511 1099,776.5C 1104.61,828.803 1104.94,881.136 1100,933.5C 1090.21,959.546 1081.21,985.879 1073,1012.5C 1068.38,1029.21 1065.38,1046.21 1064,1063.5C 1062.47,1085.15 1061.31,1106.81 1060.5,1128.5C 1060.55,1146.7 1062.38,1164.7 1066,1182.5C 1066.47,1183.93 1067.3,1185.1 1068.5,1186C 1065.22,1186.12 1062.39,1184.95 1060,1182.5C 1064.92,1198.85 1068.92,1215.51 1072,1232.5C 1072.02,1272.28 1057.86,1306.12 1029.5,1334C 1023.63,1338.44 1017.29,1342.1 1010.5,1345C 973.315,1353.05 936.648,1351.05 900.5,1339C 892.888,1335.86 885.554,1332.19 878.5,1328C 864.244,1318.52 851.577,1307.19 840.5,1294C 817.287,1285.07 795.954,1273.07 776.5,1258C 765.211,1247.05 755.044,1235.22 746,1222.5C 728.086,1203.66 708.586,1186.82 687.5,1172C 665.174,1156.84 642.507,1142.17 619.5,1128C 591.536,1103.7 563.869,1079.04 536.5,1054C 508.824,1027.33 482.991,999.166 459,969.5C 435.759,937.54 426.426,901.873 431,862.5C 417.039,868.449 402.539,872.449 387.5,874.5C 351.01,870.91 318.01,858.41 288.5,837C 268.856,819.488 255.522,798.321 248.5,773.5C 251.583,776.706 255.25,778.873 259.5,780C 276.338,783.564 293.338,784.897 310.5,784C 319.416,782.604 328.083,780.271 336.5,777C 351.261,770.413 366.261,764.413 381.5,759C 365.367,759.866 349.2,760.366 333,760.5C 284.428,764.07 240.595,751.57 201.5,723C 174.587,703.097 153.087,678.597 137,649.5C 114.144,602.272 110.477,553.605 126,503.5C 138.935,474.291 153.935,446.291 171,419.5C 206,365.5 241,311.5 276,257.5C 293.284,226.697 301.284,193.697 300,158.5C 315.07,192.923 318.737,228.59 311,265.5C 307.405,284.214 302.405,302.547 296,320.5C 275.171,369.159 255.171,418.159 236,467.5C 227,491.499 219,515.833 212,540.5C 192.131,617.319 216.965,674.152 286.5,711C 321.193,724.672 357.193,732.339 394.5,734C 423.167,734.333 451.833,734.667 480.5,735C 480.833,735.333 481.167,735.667 481.5,736C 479.5,736.667 477.5,737.333 475.5,738C 482.996,743.249 490.663,748.249 498.5,753C 495.265,752.071 491.932,751.071 488.5,750C 469.561,749.12 451.227,752.12 433.5,759C 413.936,765.616 395.603,774.616 378.5,786C 359.373,793.574 339.539,797.741 319,798.5C 305.055,797.554 291.222,796.054 277.5,794C 301.473,807.476 327.14,812.142 354.5,808C 363.418,806.964 372.251,805.464 381,803.5C 403.819,809.284 426.986,813.118 450.5,815C 473.794,817.998 497.127,818.998 520.5,818C 515.044,822.784 509.044,826.784 502.5,830C 485.744,838.712 468.744,846.878 451.5,854.5C 450.369,856.074 450.202,857.741 451,859.5C 461.575,898.505 483.742,929.005 517.5,951C 570.2,983.691 624.2,1014.36 679.5,1043C 687.393,1047.56 694.727,1052.89 701.5,1059C 737.39,1091.69 766.89,1129.19 790,1171.5C 797.39,1187.67 804.39,1204 811,1220.5C 816.786,1231.91 822.953,1243.07 829.5,1254C 854.109,1253.72 878.109,1249.72 901.5,1242C 912.277,1238.04 921.111,1231.54 928,1222.5C 929.464,1219.27 930.631,1215.94 931.5,1212.5C 930.781,1210.27 929.448,1208.44 927.5,1207C 931.359,1208.58 935.359,1210.25 939.5,1212C 948.187,1215.12 956.854,1215.12 965.5,1212C 991.529,1200.97 1013.2,1184.3 1030.5,1162C 1026.74,1145.06 1021.57,1128.56 1015,1112.5C 983.297,1048.59 972.63,981.253 983,910.5C 992.934,878.698 1003.27,847.031 1014,815.5C 1023.29,786.375 1030.29,756.708 1035,726.5C 1036.98,689.618 1027.15,656.285 1005.5,626.5C 985.847,634.462 965.847,637.962 945.5,637C 952.74,631.696 960.074,626.363 967.5,621C 980.158,609.188 989.991,595.355 997,579.5C 1002.79,566.14 1007.79,552.474 1012,538.5C 1014,534.5 1016,530.5 1018,526.5C 1030.11,508.058 1042.61,489.892 1055.5,472C 1054.83,471.333 1054.17,471.333 1053.5,472C 1045.74,480.365 1037.4,488.032 1028.5,495C 987.02,518.13 949.187,546.297 915,579.5C 911.351,585.454 908.685,591.787 907,598.5C 906.016,592.307 906.682,586.307 909,580.5C 915.975,566.04 924.808,552.874 935.5,541C 900.98,557.392 864.646,567.725 826.5,572C 863.119,558.535 896.119,539.202 925.5,514C 961.806,478.883 982.139,436.05 986.5,385.5C 986.515,365.542 980.681,347.542 969,331.5C 962.865,324.364 956.365,317.531 949.5,311C 933.183,298.841 916.516,287.174 899.5,276C 795.286,212.645 698.62,139.145 609.5,55.5 Z"/></g>
<g><path style="opacity:0.931" fill="#000000" d="M 320.5,183.5 C 348.047,234.713 353.547,288.379 337,344.5C 333.268,358.031 328.934,371.364 324,384.5C 312.056,414.723 300.389,445.056 289,475.5C 279.048,506.343 277.048,537.677 283,569.5C 292.751,606.911 314.251,635.411 347.5,655C 388.239,676.115 431.572,685.949 477.5,684.5C 539.748,685.527 596.748,669.027 648.5,635C 681.428,609.749 705.594,577.916 721,539.5C 734.313,497.732 726.979,460.065 699,426.5C 698.333,425.833 698.333,425.167 699,424.5C 736.104,465.892 743.104,511.892 720,562.5C 694.991,616.509 655.157,655.342 600.5,679C 533.859,706.627 465.192,713.294 394.5,699C 342.334,686.131 302.834,656.631 276,610.5C 264.407,584.02 260.074,556.353 263,527.5C 265.16,504.861 270.16,482.861 278,461.5C 293.433,429.302 307.766,396.636 321,363.5C 330.408,339.611 336.742,314.944 340,289.5C 341.725,264.361 339.059,239.694 332,215.5C 328.254,204.76 324.421,194.093 320.5,183.5 Z"/></g>
</svg>
