<?xml version="1.0" encoding="UTF-8"?>
<!DOCTYPE svg PUBLIC "-//W3C//DTD SVG 1.1//EN" "http://www.w3.org/Graphics/SVG/1.1/DTD/svg11.dtd">
<svg xmlns="http://www.w3.org/2000/svg" version="1.1" width="1441px" height="1512px" style="shape-rendering:geometricPrecision; text-rendering:geometricPrecision; image-rendering:optimizeQuality; fill-rule:evenodd; clip-rule:evenodd" xmlns:xlink="http://www.w3.org/1999/xlink">
<g><path style="opacity:0.965" fill="#000000" d="M 638.5,65.5 C 722.095,62.8527 794.095,90.0193 854.5,147C 871.489,164.808 885.655,184.642 897,206.5C 909.787,238.979 919.787,272.312 927,306.5C 937.824,357.952 949.157,409.285 961,460.5C 965.661,476.503 974.328,489.836 987,500.5C 988.858,503.763 990.025,507.263 990.5,511C 989.193,520.902 986.193,530.236 981.5,539C 935.006,550.655 899.173,576.821 874,617.5C 859.248,643.753 849.248,671.753 844,701.5C 845.307,653.906 860.307,611.239 889,573.5C 908.219,550.629 932.052,534.462 960.5,525C 956.12,519.747 952.62,513.914 950,507.5C 938.65,483.106 931.817,457.439 929.5,430.5C 912.309,433.649 894.975,435.649 877.5,436.5C 865.16,437.07 854.16,433.57 844.5,426C 832.072,416.243 820.239,405.743 809,394.5C 806.428,391.597 804.261,388.431 802.5,385C 802.667,384.5 802.833,384 803,383.5C 823.294,395.489 844.961,404.156 868,409.5C 868.414,409.043 868.914,408.709 869.5,408.5C 887.665,416.42 906.499,422.42 926,426.5C 926.833,426.167 927.667,425.833 928.5,425.5C 920.553,375.815 912.386,326.148 904,276.5C 899.914,253.235 894.747,230.235 888.5,207.5C 857.602,198.767 826.102,193.767 794,192.5C 766.582,192.182 740.749,198.349 716.5,211C 694.969,224.538 679.135,243.038 669,266.5C 651.766,314.698 645.1,364.364 649,415.5C 651.095,445.166 654.595,474.666 659.5,504C 659.064,522.686 660.897,541.186 665,559.5C 711.426,609.098 764.592,649.598 824.5,681C 828.646,682.937 832.979,684.271 837.5,685C 831.551,686.538 825.551,686.538 819.5,685C 786.04,678.07 754.374,666.404 724.5,650C 715.542,644.097 707.708,636.931 701,628.5C 689.212,612.038 678.212,595.038 668,577.5C 670.342,594.217 673.342,610.884 677,627.5C 750.367,691.2 818.7,759.866 882,833.5C 895.83,850.33 908.497,867.997 920,886.5C 933.141,914.728 941.141,944.395 944,975.5C 948.54,1008.51 948.54,1041.51 944,1074.5C 935.891,1131.1 922.058,1186.27 902.5,1240C 907.911,1261.88 911.078,1284.05 912,1306.5C 904.788,1258.86 888.121,1214.86 862,1174.5C 839.553,1141.03 813.72,1110.2 784.5,1082C 762.321,1061.34 739.488,1041.51 716,1022.5C 705.667,1041.17 694.334,1059.17 682,1076.5C 681.878,1074.83 682.212,1073.16 683,1071.5C 692.857,1053.26 700.357,1034.1 705.5,1014C 633.358,957.693 553.358,915.359 465.5,887C 466.6,885.977 467.933,885.477 469.5,885.5C 489.767,888.317 509.434,893.484 528.5,901C 591.217,925.359 651.551,954.526 709.5,988.5C 717.498,928.141 702.331,874.474 664,827.5C 638.037,797.868 611.704,768.535 585,739.5C 534,687.833 483,636.167 432,584.5C 419.628,571.13 407.628,557.463 396,543.5C 409.531,586.356 416.698,630.356 417.5,675.5C 414.308,775.571 384.641,866.737 328.5,949C 382.257,958.586 433.59,975.586 482.5,1000C 508.33,1013.92 531.663,1031.25 552.5,1052C 602.212,1101.67 648.045,1154.17 690,1209.5C 651.957,1180.89 613.123,1153.39 573.5,1127C 508.029,1084.64 439.363,1047.64 367.5,1016C 358.28,1011.71 348.947,1008.04 339.5,1005C 396.621,1110.43 471.954,1201.1 565.5,1277C 622.682,1321.09 686.349,1352.76 756.5,1372C 846.251,1388.31 920.418,1361.81 979,1292.5C 1001.54,1266.11 1019.54,1236.78 1033,1204.5C 1036.72,1191.09 1038.72,1177.42 1039,1163.5C 1038.65,1139.84 1038.65,1116.17 1039,1092.5C 1040.15,1057.37 1057.31,1034.2 1090.5,1023C 1096.71,1020.65 1103.04,1018.82 1109.5,1017.5C 1107.04,1011.9 1104.54,1006.23 1102,1000.5C 1101.33,998.167 1101.33,995.833 1102,993.5C 1112.86,977.116 1124.69,961.449 1137.5,946.5C 1144.6,962.721 1150.6,979.387 1155.5,996.5C 1154.48,1001.26 1153.14,1005.93 1151.5,1010.5C 1153.22,1011 1154.88,1011.33 1156.5,1011.5C 1154.6,1012.47 1152.6,1012.8 1150.5,1012.5C 1147.24,1024.61 1143.58,1036.61 1139.5,1048.5C 1140,1049.52 1140.67,1049.69 1141.5,1049C 1184.92,1013.58 1222.76,973.082 1255,927.5C 1284.62,869.001 1301.12,807.001 1304.5,741.5C 1298.38,626.373 1271.55,516.373 1224,411.5C 1222.63,408.588 1221.13,405.754 1219.5,403C 1213.09,400.38 1207.25,396.88 1202,392.5C 1202.87,383.407 1206.03,375.074 1211.5,367.5C 1217.11,371.612 1222.28,376.278 1227,381.5C 1226.64,389.121 1226.48,396.788 1226.5,404.5C 1225.32,404.281 1224.32,404.614 1223.5,405.5C 1229.58,416.663 1235.91,427.663 1242.5,438.5C 1244.79,433.886 1247.79,429.886 1251.5,426.5C 1256.39,428.866 1260.89,431.866 1265,435.5C 1265.5,441.491 1265.67,447.491 1265.5,453.5C 1259.7,453.519 1254.04,453.019 1248.5,452C 1260.5,475.172 1271,499.006 1280,523.5C 1283.91,515.77 1288.41,508.437 1293.5,501.5C 1298.23,508.086 1302.4,515.086 1306,522.5C 1305.11,532.729 1302.94,542.729 1299.5,552.5C 1294.54,548.369 1290.04,543.702 1286,538.5C 1289.96,551.057 1293.96,563.724 1298,576.5C 1302.96,569.045 1308.46,562.045 1314.5,555.5C 1319.5,562.502 1323.17,570.169 1325.5,578.5C 1322.48,587.545 1318.64,596.212 1314,604.5C 1309.61,599.111 1305.61,593.444 1302,587.5C 1311.36,625.965 1318.02,664.965 1322,704.5C 1326.58,785.85 1309.24,862.183 1270,933.5C 1252.92,962.259 1231.75,987.759 1206.5,1010C 1195.79,1019.05 1184.79,1027.71 1173.5,1036C 1181.06,1032.9 1188.73,1029.73 1196.5,1026.5C 1212.97,1035.23 1229.3,1044.23 1245.5,1053.5C 1243.72,1055.23 1241.72,1056.73 1239.5,1058C 1253.49,1057.3 1267.49,1056.3 1281.5,1055C 1295.17,1054.33 1308.83,1054.33 1322.5,1055C 1327.84,1055.42 1332.84,1056.92 1337.5,1059.5C 1341.91,1057.44 1346.41,1056.78 1351,1057.5C 1351.67,1058.83 1351.67,1060.17 1351,1061.5C 1328.6,1070.41 1306.44,1079.91 1284.5,1090C 1258.64,1109.19 1237.8,1132.69 1222,1160.5C 1195.88,1215.41 1168.21,1269.41 1139,1322.5C 1101.29,1377.51 1050.46,1415.01 986.5,1435C 925.703,1450.38 864.369,1452.72 802.5,1442C 858.275,1446.66 912.942,1440.99 966.5,1425C 1013.32,1408.5 1053.48,1382 1087,1345.5C 1095.19,1334.47 1103.85,1323.8 1113,1313.5C 1145.79,1261.36 1177.79,1208.69 1209,1155.5C 1221.7,1135.79 1237.54,1118.96 1256.5,1105C 1274.67,1094.75 1292.34,1083.75 1309.5,1072C 1317.71,1067.73 1326.04,1063.73 1334.5,1060C 1334.17,1059.67 1333.83,1059.33 1333.5,1059C 1314.57,1060.05 1295.9,1063.05 1277.5,1068C 1256.66,1073.06 1235.99,1078.72 1215.5,1085C 1203.74,1088.36 1192.41,1092.69 1181.5,1098C 1152.41,1104.15 1123.24,1109.65 1094,1114.5C 1088.53,1112.19 1083.7,1109.02 1079.5,1105C 1079.96,1104.59 1080.29,1104.09 1080.5,1103.5C 1078.59,1099.34 1076.42,1095.34 1074,1091.5C 1073.33,1086.17 1073.33,1080.83 1074,1075.5C 1087.13,1058.04 1100.63,1040.87 1114.5,1024C 1114.05,1022.38 1113.05,1021.21 1111.5,1020.5C 1097.57,1024.64 1084.23,1030.14 1071.5,1037C 1058.68,1047.8 1051.52,1061.63 1050,1078.5C 1048.98,1088.14 1048.48,1097.8 1048.5,1107.5C 1049.08,1127.84 1049.75,1148.17 1050.5,1168.5C 1050.41,1178.52 1049.91,1188.52 1049,1198.5C 1027.02,1271.34 984.521,1328.84 921.5,1371C 873.33,1398.51 821.663,1408.51 766.5,1401C 724.34,1390.92 684.34,1375.26 646.5,1354C 590.022,1323.49 539.856,1284.66 496,1237.5C 429.868,1167.82 376.035,1089.49 334.5,1002.5C 307.618,992.56 282.285,979.726 258.5,964C 233.629,944.336 228.796,920.502 244,892.5C 254.291,877.209 266.958,864.209 282,853.5C 321.468,803.239 350.468,747.239 369,685.5C 383.061,631.508 386.395,576.841 379,521.5C 377.951,517.735 376.618,514.068 375,510.5C 310.923,395.873 320.256,287.873 403,186.5C 451.614,129.93 512.114,92.0965 584.5,73C 602.475,69.2173 620.475,66.7173 638.5,65.5 Z M 682.5,101.5 C 737.284,100.488 786.95,115.654 831.5,147C 846.5,158.667 861.5,170.333 876.5,182C 882.152,189.305 885.652,197.472 887,206.5C 857.579,196.27 827.412,189.103 796.5,185C 757.75,181.853 722.417,191.186 690.5,213C 676.462,223.603 665.629,236.77 658,252.5C 634.949,302.751 623.782,355.584 624.5,411C 625.044,426.85 625.878,442.683 627,458.5C 629.993,483.109 632.326,507.775 634,532.5C 639.054,562.437 645.388,592.104 653,621.5C 668,678.172 682.667,734.838 697,791.5C 691.507,780.51 685.507,769.843 679,759.5C 624.324,678.824 567.324,599.824 508,522.5C 495.609,505.107 483.609,487.44 472,469.5C 464.208,452.376 455.541,435.709 446,419.5C 420.771,368.176 420.104,316.51 444,264.5C 491.614,163.749 571.114,109.416 682.5,101.5 Z M 678.5,634.5 C 733.718,694.545 786.551,756.545 837,820.5C 859.385,848.268 880.052,877.268 899,907.5C 921.301,962.305 930.968,1019.31 928,1078.5C 923.874,1131.26 915.207,1183.26 902,1234.5C 888.378,1190.59 868.378,1149.92 842,1112.5C 830.046,1096.88 817.713,1081.54 805,1066.5C 790.446,1051.95 775.946,1037.45 761.5,1023C 749.795,1014.49 738.129,1005.99 726.5,997.5C 738.417,967.08 741.583,935.747 736,903.5C 732.522,881.586 726.855,860.253 719,839.5C 705.69,771.116 692.19,702.782 678.5,634.5 Z M 1117.5,1030.5 C 1118.5,1030.41 1119.33,1030.75 1120,1031.5C 1124.68,1038.86 1129.85,1045.86 1135.5,1052.5C 1125.07,1061.22 1114.07,1069.22 1102.5,1076.5C 1101.48,1077 1101.31,1077.67 1102,1078.5C 1116.28,1070.94 1130.45,1063.28 1144.5,1055.5C 1154.52,1061.18 1164.85,1066.34 1175.5,1071C 1150.55,1078.82 1125.55,1086.49 1100.5,1094C 1098.5,1094.67 1096.5,1094.67 1094.5,1094C 1092.7,1090.7 1090.7,1087.53 1088.5,1084.5C 1097.15,1065.87 1106.81,1047.87 1117.5,1030.5 Z"/></g>
<g><path style="opacity:0.936" fill="#000000" d="M 1211.5,441.5 C 1218.61,441.444 1225.61,442.277 1232.5,444C 1235.92,450.675 1238.92,457.508 1241.5,464.5C 1232.54,465.415 1223.54,465.748 1214.5,465.5C 1213.06,457.562 1212.06,449.562 1211.5,441.5 Z"/></g>
<g><path style="opacity:0.925" fill="#000000" d="M 1278.5,452.5 C 1279.5,452.414 1280.33,452.748 1281,453.5C 1284.72,460.268 1287.88,467.268 1290.5,474.5C 1287.22,483.07 1282.88,491.07 1277.5,498.5C 1271.41,491.219 1266.74,483.052 1263.5,474C 1263.63,472.373 1264.13,470.873 1265,469.5C 1270,464.137 1274.5,458.47 1278.5,452.5 Z"/></g>
<g><path style="opacity:0.925" fill="#000000" d="M 1221.5,489.5 C 1229.88,489.262 1238.21,489.762 1246.5,491C 1249.2,491.765 1251.7,492.932 1254,494.5C 1259.25,504.955 1260.75,515.955 1258.5,527.5C 1251.6,520.631 1243.43,515.964 1234,513.5C 1230.63,505.254 1226.13,497.754 1220.5,491C 1221.06,490.617 1221.39,490.117 1221.5,489.5 Z"/></g>
<g><path style="opacity:0.93" fill="#000000" d="M 1233.5,536.5 C 1242.43,538.422 1251.1,541.255 1259.5,545C 1265.16,553.656 1269.49,562.989 1272.5,573C 1272.17,573.5 1271.83,574 1271.5,574.5C 1261.27,572.036 1251.27,568.869 1241.5,565C 1237.99,555.806 1235.32,546.306 1233.5,536.5 Z"/></g>
<g><path style="opacity:0.929" fill="#000000" d="M 1247.5,586.5 C 1258.8,588.099 1269.3,591.766 1279,597.5C 1282.24,607.602 1284.41,617.936 1285.5,628.5C 1275.69,624.208 1266.19,619.208 1257,613.5C 1253.98,604.42 1250.82,595.42 1247.5,586.5 Z"/></g>
<g><path style="opacity:0.923" fill="#000000" d="M 1330.5,606.5 C 1332.34,607.122 1333.5,608.456 1334,610.5C 1335.91,616.644 1337.74,622.81 1339.5,629C 1335.64,637.225 1331.14,645.058 1326,652.5C 1319.87,644.577 1315.04,635.91 1311.5,626.5C 1317.18,619.155 1323.51,612.488 1330.5,606.5 Z"/></g>
<g><path style="opacity:0.932" fill="#000000" d="M 1259.5,637.5 C 1268.44,640.387 1276.61,644.721 1284,650.5C 1284.86,652.087 1285.53,653.754 1286,655.5C 1286.89,664.895 1286.55,674.228 1285,683.5C 1277,677.5 1269,671.5 1261,665.5C 1260.6,659.996 1260.77,654.496 1261.5,649C 1261.57,645.014 1260.9,641.181 1259.5,637.5 Z"/></g>
<g><path style="opacity:0.932" fill="#000000" d="M 1344.5,652.5 C 1345.5,652.5 1346.5,652.5 1347.5,652.5C 1348.4,661.82 1348.57,671.153 1348,680.5C 1341.67,687.5 1335.33,694.5 1329,701.5C 1324.95,691.246 1322.95,680.58 1323,669.5C 1330.07,663.589 1337.23,657.922 1344.5,652.5 Z"/></g>
<g><path style="opacity:0.935" fill="#000000" d="M 1264.5,685.5 C 1274.36,689.096 1283.69,693.762 1292.5,699.5C 1296.63,710.356 1299.3,721.356 1300.5,732.5C 1290.18,727.34 1280.18,721.673 1270.5,715.5C 1267.86,705.635 1265.86,695.635 1264.5,685.5 Z"/></g>
<g><path style="opacity:0.924" fill="#000000" d="M 1356.5,703.5 C 1357.65,703.791 1358.32,704.624 1358.5,706C 1357.61,713.874 1356.45,721.707 1355,729.5C 1348.33,736.167 1341.67,742.833 1335,749.5C 1330.82,739.277 1329.16,728.61 1330,717.5C 1330.83,716.667 1331.67,715.833 1332.5,715C 1340.47,710.857 1348.47,707.023 1356.5,703.5 Z"/></g>
<g><path style="opacity:0.929" fill="#000000" d="M 1269.5,740.5 C 1277.46,746.627 1284.63,753.627 1291,761.5C 1292.7,772.814 1293.2,784.148 1292.5,795.5C 1282.94,789.109 1274.1,781.776 1266,773.5C 1266.27,762.424 1267.44,751.424 1269.5,740.5 Z"/></g>
<g><path style="opacity:0.928" fill="#000000" d="M 1352.5,760.5 C 1353.5,760.5 1354.5,760.5 1355.5,760.5C 1354.65,770.095 1352.65,779.429 1349.5,788.5C 1341.81,794.692 1333.98,800.692 1326,806.5C 1324.87,803.184 1324.37,799.684 1324.5,796C 1324.48,787.998 1325.48,780.164 1327.5,772.5C 1335.77,768.196 1344.11,764.196 1352.5,760.5 Z"/></g>
<g><path style="opacity:0.932" fill="#000000" d="M 1251.5,791.5 C 1260.58,800.282 1268.75,809.949 1276,820.5C 1277.73,835.153 1277.73,849.82 1276,864.5C 1267.18,854.196 1258.85,843.529 1251,832.5C 1250.04,829.925 1249.54,827.259 1249.5,824.5C 1250.59,813.523 1251.26,802.523 1251.5,791.5 Z"/></g>
<g><path style="opacity:0.933" fill="#000000" d="M 1360.5,799.5 C 1358.62,811.348 1355.12,823.014 1350,834.5C 1340.73,842.44 1330.89,849.607 1320.5,856C 1318.96,857.187 1317.29,857.52 1315.5,857C 1319.11,844.061 1323.11,831.228 1327.5,818.5C 1338.4,811.887 1349.4,805.554 1360.5,799.5 Z"/></g>
<g><path style="opacity:0.93" fill="#000000" d="M 1248.5,849.5 C 1251.03,851.51 1252.86,854.177 1254,857.5C 1257.26,864.847 1260.09,872.347 1262.5,880C 1260.75,892.067 1258.25,903.9 1255,915.5C 1246.96,905.115 1240.13,893.948 1234.5,882C 1238.49,870.855 1243.16,860.021 1248.5,849.5 Z"/></g>
<g><path style="opacity:0.932" fill="#000000" d="M 1347.5,856.5 C 1348.5,856.47 1349.16,856.97 1349.5,858C 1346.18,868.648 1341.51,878.648 1335.5,888C 1324.16,892.113 1312.66,895.613 1301,898.5C 1305.48,887.213 1311.31,876.546 1318.5,866.5C 1328.41,863.53 1338.08,860.197 1347.5,856.5 Z"/></g>
<g><path style="opacity:0.933" fill="#000000" d="M 1216.5,888.5 C 1218.07,888.937 1219.24,889.937 1220,891.5C 1224.26,899.009 1228.26,906.676 1232,914.5C 1231.81,927.43 1229.81,940.097 1226,952.5C 1217.77,942.532 1210.93,931.699 1205.5,920C 1208.88,909.365 1212.54,898.865 1216.5,888.5 Z"/></g>
<g><path style="opacity:0.929" fill="#000000" d="M 1331.5,908.5 C 1338.2,908.17 1344.87,908.503 1351.5,909.5C 1343.61,918.554 1334.95,926.721 1325.5,934C 1320.31,935.643 1314.98,936.643 1309.5,937C 1300.48,938.036 1291.48,938.203 1282.5,937.5C 1292.13,928.676 1301.79,919.843 1311.5,911C 1318.24,909.911 1324.91,909.077 1331.5,908.5 Z"/></g>
<g><path style="opacity:0.959" fill="#000000" d="M 1189.5,923.5 C 1192.36,926.19 1194.53,929.523 1196,933.5C 1200.76,944.126 1204.93,954.96 1208.5,966C 1200.88,981.426 1191.88,995.926 1181.5,1009.5C 1170.07,995.153 1161.07,979.32 1154.5,962C 1155.47,958.355 1157.31,955.188 1160,952.5C 1170.34,943.328 1180.17,933.661 1189.5,923.5 Z"/></g>
<g><path style="opacity:0.947" fill="#000000" d="M 1292.5,946.5 C 1305.44,949.59 1317.77,954.257 1329.5,960.5C 1320.41,970.258 1310.41,978.925 1299.5,986.5C 1284.6,981.048 1269.93,975.048 1255.5,968.5C 1266.78,959.361 1279.11,952.028 1292.5,946.5 Z"/></g>
<g><path style="opacity:0.959" fill="#000000" d="M 1259.5,987.5 C 1262.32,987.248 1264.99,987.748 1267.5,989C 1279.93,997.592 1291.93,1006.76 1303.5,1016.5C 1291.55,1025.06 1279.05,1032.72 1266,1039.5C 1250.96,1034.6 1236.13,1029.1 1221.5,1023C 1220.55,1022.28 1220.38,1021.45 1221,1020.5C 1232.85,1008.14 1245.68,997.137 1259.5,987.5 Z"/></g>
</svg>
